<svg width="20" height="20" viewBox="0 0 20 20" fill="none" xmlns="http://www.w3.org/2000/svg">
<path d="M7.22222 2.27273C7.22222 1.82323 7.38514 1.38382 7.69036 1.01007C7.99559 0.636321 8.42942 0.345019 8.93699 0.173002C9.44456 0.000984736 10.0031 -0.0440228 10.5419 0.0436708C11.0808 0.131365 11.5757 0.347821 11.9642 0.665667C12.3527 0.983514 12.6172 1.38848 12.7244 1.82934C12.8316 2.27021 12.7766 2.72718 12.5663 3.14246C12.3561 3.55775 12.0001 3.9127 11.5433 4.16243C11.0864 4.41216 10.5494 4.54545 10 4.54545C9.26329 4.54545 8.55675 4.30601 8.03582 3.87979C7.51488 3.45357 7.22222 2.87549 7.22222 2.27273ZM18.8889 5.45455H1.11111C0.816426 5.45455 0.533811 5.55032 0.325437 5.72081C0.117063 5.8913 0 6.12253 0 6.36364C0 6.60474 0.117063 6.83597 0.325437 7.00646C0.533811 7.17695 0.816426 7.27273 1.11111 7.27273H6.66667V19.0909C6.66667 19.332 6.78373 19.5632 6.9921 19.7337C7.20048 19.9042 7.48309 20 7.77778 20C8.07246 20 8.35508 19.9042 8.56345 19.7337C8.77183 19.5632 8.88889 19.332 8.88889 19.0909V12.7273H11.1111V19.0909C11.1111 19.332 11.2282 19.5632 11.4365 19.7337C11.6449 19.9042 11.9275 20 12.2222 20C12.5169 20 12.7995 19.9042 13.0079 19.7337C13.2163 19.5632 13.3333 19.332 13.3333 19.0909V7.27273H18.8889C19.1836 7.27273 19.4662 7.17695 19.6746 7.00646C19.8829 6.83597 20 6.60474 20 6.36364C20 6.12253 19.8829 5.8913 19.6746 5.72081C19.4662 5.55032 19.1836 5.45455 18.8889 5.45455Z" fill="white"/>
</svg>
