<svg width="25" height="25" viewBox="0 0 25 25" fill="none" xmlns="http://www.w3.org/2000/svg">
<path d="M2.50908 13.3789V3C2.50908 2.69624 2.75533 2.45 3.05908 2.45H21.9799C22.2836 2.45 22.5299 2.69624 22.5299 3V13.3789C22.5299 13.6827 22.2836 13.9289 21.9799 13.9289H3.05908C2.75533 13.9289 2.50908 13.6827 2.50908 13.3789Z" stroke="#506285" stroke-width="0.9" stroke-linecap="round" stroke-linejoin="round"/>
<path d="M3.7998 12.3894V4.83325H4.56753V11.7622H14.452V12.3894H9.12589H3.7998Z" fill="#506285"/>
<path d="M6.84328 8.5342H5.80563V11.5155H6.84328V8.5342Z" fill="#506285"/>
<path d="M7.85414 11.5155V7.09038H8.87227V11.5327L7.85414 11.5155Z" fill="#506285"/>
<path d="M10.9013 5.50382H9.90264V11.5327H10.9013V5.50382Z" fill="#506285"/>
<path d="M12.9302 7.58402H11.9511V11.5327L12.9302 11.5155V7.58402Z" fill="#506285"/>
<path d="M14.6606 21.4168L13.3538 18.0417C13.0665 17.2997 12.3526 16.8105 11.5569 16.8105C10.7406 16.8105 10.0129 17.3249 9.74049 18.0944L8.56131 21.4255C8.46874 21.6869 8.22146 21.8617 7.94407 21.8617H7.85845C7.54412 21.8617 7.28931 22.1165 7.28931 22.4309C7.28931 22.7452 7.54412 23 7.85845 23H15.4372C15.7515 23 16.0063 22.7452 16.0063 22.4309C16.0063 22.1165 15.7515 21.8617 15.4372 21.8617H15.31C15.0224 21.8617 14.7644 21.685 14.6606 21.4168Z" fill="#506285"/>
<path d="M22.3943 15.4868C22.2026 15.9179 21.7706 16.2184 21.2684 16.2184H3.7326C3.23935 16.2184 2.81901 15.9149 2.6445 15.4868H22.3943Z" stroke="#506285"/>
<path d="M18.5573 9.01915L18.1165 6.60109C19.6054 6.27869 20.4674 7.30636 20.7123 7.8605L18.5573 9.01915Z" fill="#506285"/>
<path d="M18.3613 9.28346L17.6865 6.55029C14.5722 8.3081 15.8352 10.6411 16.856 11.5879L18.3613 9.28346Z" fill="#506285"/>
<path d="M18.7068 9.27079L17.1885 11.6888C20.6758 13.0994 21.6455 9.32116 20.8129 8.21289L18.7068 9.27079Z" fill="#506285"/>
</svg>
