<svg width="25" height="25" viewBox="0 0 25 25" fill="none" xmlns="http://www.w3.org/2000/svg">
<path d="M21.7158 15.4747L17.1152 13.4131L17.1025 13.4073C16.8637 13.3051 16.6032 13.2641 16.3445 13.288C16.0858 13.3119 15.8372 13.3999 15.6211 13.544C15.5957 13.5608 15.5712 13.5791 15.5479 13.5987L13.1709 15.625C11.665 14.8936 10.1104 13.3506 9.37892 11.8643L11.4082 9.45122C11.4277 9.4268 11.4463 9.40239 11.4639 9.37602C11.6049 9.1605 11.6905 8.91345 11.713 8.65686C11.7355 8.40027 11.6942 8.14209 11.5928 7.90532V7.8936L9.5254 3.2852C9.39136 2.97589 9.16087 2.71823 8.86836 2.55067C8.57584 2.38311 8.23697 2.31466 7.90235 2.35552C6.57908 2.52964 5.36444 3.17951 4.4853 4.18373C3.60615 5.18796 3.12262 6.47787 3.12501 7.81255C3.12501 15.5665 9.4336 21.875 17.1875 21.875C18.5222 21.8774 19.8121 21.3939 20.8163 20.5148C21.8205 19.6356 22.4704 18.421 22.6445 17.0977C22.6855 16.7632 22.6172 16.4244 22.4498 16.1319C22.2824 15.8394 22.025 15.6089 21.7158 15.4747ZM17.1875 20.3125C13.8734 20.3089 10.6961 18.9908 8.35267 16.6474C6.00925 14.304 4.69113 11.1266 4.68751 7.81255C4.68384 6.85892 5.0274 5.93657 5.65405 5.21773C6.28069 4.49889 7.14757 4.03273 8.09278 3.9063C8.0924 3.91019 8.0924 3.91412 8.09278 3.91802L10.1436 8.50786L8.12501 10.9239C8.10452 10.9474 8.08591 10.9726 8.06934 10.9991C7.92239 11.2246 7.83618 11.4842 7.81907 11.7528C7.80196 12.0215 7.85453 12.2899 7.97169 12.5323C8.85645 14.3418 10.6797 16.1514 12.5088 17.0352C12.7529 17.1513 13.0229 17.202 13.2925 17.1825C13.5621 17.163 13.822 17.0739 14.0469 16.9239C14.072 16.907 14.0961 16.8887 14.1192 16.8692L16.4932 14.8438L21.083 16.8995C21.083 16.8995 21.0908 16.8995 21.0938 16.8995C20.9689 17.846 20.5034 18.7146 19.7844 19.3428C19.0655 19.971 18.1423 20.3158 17.1875 20.3125Z" fill="#2D3748"/>
</svg>
