<svg width="26" height="26" viewBox="0 0 26 26" fill="none" xmlns="http://www.w3.org/2000/svg">
<path d="M22.7158 16.4747L18.1152 14.4131L18.1025 14.4073C17.8637 14.3051 17.6032 14.2641 17.3445 14.288C17.0858 14.3119 16.8372 14.3999 16.6211 14.544C16.5957 14.5608 16.5712 14.5791 16.5479 14.5987L14.1709 16.625C12.665 15.8936 11.1104 14.3506 10.3789 12.8643L12.4082 10.4512C12.4277 10.4268 12.4463 10.4024 12.4639 10.376C12.6049 10.1605 12.6905 9.91345 12.713 9.65686C12.7355 9.40027 12.6942 9.14209 12.5928 8.90532V8.8936L10.5254 4.2852C10.3914 3.97589 10.1609 3.71823 9.86836 3.55067C9.57584 3.38311 9.23697 3.31466 8.90235 3.35552C7.57908 3.52964 6.36444 4.17951 5.4853 5.18373C4.60615 6.18796 4.12262 7.47787 4.12501 8.81255C4.12501 16.5665 10.4336 22.875 18.1875 22.875C19.5222 22.8774 20.8121 22.3939 21.8163 21.5148C22.8205 20.6356 23.4704 19.421 23.6445 18.0977C23.6855 17.7632 23.6172 17.4244 23.4498 17.1319C23.2824 16.8394 23.025 16.6089 22.7158 16.4747ZM18.1875 21.3125C14.8734 21.3089 11.6961 19.9908 9.35267 17.6474C7.00925 15.304 5.69113 12.1266 5.68751 8.81255C5.68384 7.85892 6.0274 6.93657 6.65405 6.21773C7.28069 5.49889 8.14757 5.03273 9.09278 4.9063C9.0924 4.91019 9.0924 4.91412 9.09278 4.91802L11.1436 9.50786L9.12501 11.9239C9.10452 11.9474 9.08591 11.9726 9.06934 11.9991C8.92239 12.2246 8.83618 12.4842 8.81907 12.7528C8.80196 13.0215 8.85453 13.2899 8.97169 13.5323C9.85645 15.3418 11.6797 17.1514 13.5088 18.0352C13.7529 18.1513 14.0229 18.202 14.2925 18.1825C14.5621 18.163 14.822 18.0739 15.0469 17.9239C15.072 17.907 15.0961 17.8887 15.1192 17.8692L17.4932 15.8438L22.083 17.8995C22.083 17.8995 22.0908 17.8995 22.0938 17.8995C21.9689 18.846 21.5034 19.7146 20.7844 20.3428C20.0655 20.971 19.1423 21.3158 18.1875 21.3125Z" fill="#2D3748"/>
</svg>
