<svg width="104" height="56" viewBox="0 0 104 56" fill="none" xmlns="http://www.w3.org/2000/svg">
<path fill-rule="evenodd" clip-rule="evenodd" d="M5.29744 28.292L4.89258 27.8813C5.26208 27.5039 5.70262 27.2041 6.18854 26.9995C6.67445 26.7948 7.19602 26.6895 7.72286 26.6895C8.2497 26.6895 8.77128 26.7948 9.25719 26.9995C9.74311 27.2041 10.1836 27.5039 10.5531 27.8813L10.1409 28.2771C9.82488 27.9565 9.44883 27.702 9.03444 27.5284C8.62005 27.3547 8.17554 27.2653 7.72658 27.2653C7.27762 27.2653 6.8331 27.3547 6.41871 27.5284C6.00433 27.702 5.62828 27.9565 5.31229 28.2771M6.73858 29.6509L6.36715 29.2776C6.54754 29.0906 6.76346 28.942 7.00208 28.8405C7.2407 28.739 7.49718 28.6867 7.75629 28.6867C8.01541 28.6867 8.27188 28.739 8.5105 28.8405C8.74913 28.942 8.96504 29.0906 9.14544 29.2776L8.77401 29.6509C8.50559 29.3849 8.14438 29.2349 7.76744 29.2328C7.58038 29.2314 7.39493 29.2677 7.22205 29.3395C7.04916 29.4113 6.89235 29.5172 6.76086 29.6509M7.76744 30.6515L7.04686 29.9421C7.24235 29.7559 7.49833 29.6472 7.76744 29.636C8.03496 29.6444 8.28953 29.7537 8.48058 29.9421L7.76744 30.6515ZM7.76744 28.2771C8.08122 28.2744 8.39218 28.3367 8.681 28.46C8.96982 28.5834 9.23031 28.7651 9.44629 28.9939L9.89572 28.5421C9.61864 28.2542 9.28678 28.0253 8.91988 27.8689C8.55297 27.7126 8.15852 27.632 7.76001 27.632C7.36149 27.632 6.96704 27.7126 6.60014 27.8689C6.23323 28.0253 5.90137 28.2542 5.62429 28.5421L6.07001 28.9976C6.28874 28.768 6.55175 28.5858 6.84297 28.4619C7.13419 28.338 7.4475 28.2751 7.76372 28.2771" fill="#0E6EB6"/>
<path fill-rule="evenodd" clip-rule="evenodd" d="M5.04714 31.1426H10.34C6.544 40.7932 5.88286 46.4492 9.73457 46.2999C1.28457 46.8002 2.38029 38.5495 5.05086 31.1426" fill="#0E6EB6"/>
<path fill-rule="evenodd" clip-rule="evenodd" d="M9.91406 16.3415C14.7426 8.43431 22.5723 7.62791 28.1512 10.5063C34.3392 13.7058 36.2484 21.109 34.7069 27.6274C33.3512 33.5559 29.4661 38.973 24.4443 42.4562C21.3705 44.552 17.8781 45.9472 14.2115 46.5442C17.0226 45.6226 19.5382 43.964 21.4989 41.7394C22.7158 40.4113 23.7696 38.941 24.6375 37.3602C27.4863 33.4999 28.8049 29.718 28.8978 26.4252C29.0835 22.0087 27.1706 17.6258 23.1332 15.5986C19.6195 13.8028 14.8875 13.8962 9.91406 16.3452" fill="#F26329"/>
<path fill-rule="evenodd" clip-rule="evenodd" d="M6.26548 25.2605C10.2026 17.4205 18.3109 16.8717 23.0875 20.2653C24.97 21.608 26.2927 23.6023 26.8018 25.8653C27.4518 28.7474 26.9763 31.7341 25.8992 34.5826C24.9084 37.2329 23.4134 39.6638 21.4978 41.7394C18.7789 44.7597 14.8863 47.0631 10.7263 47.0183C9.06379 47.0272 7.42988 46.5834 5.99805 45.7341C7.9629 46.6861 11.0198 46.3501 12.888 45.5997C15.9783 44.3266 18.4595 41.6871 20.0083 38.7677C21.9212 35.1911 23.4292 29.4343 20.3798 26.1378C17.6126 23.0765 12.0932 22.0311 6.26548 25.2567" fill="#09A14A"/>
<path d="M98.7521 29.7512L99.6881 27.052C99.5767 27.052 99.4578 27.052 99.3575 27.052C99.0664 27.0402 98.776 27.0888 98.5044 27.1948C98.2328 27.3008 97.9859 27.4619 97.779 27.668C97.3644 28.0791 97.0822 28.6058 96.9692 29.18C96.8876 29.4403 96.8967 29.7209 96.9952 29.9752C97.0426 30.0692 97.1165 30.1469 97.2077 30.1988C97.2989 30.2506 97.4033 30.2741 97.5078 30.2664C97.9655 30.2374 98.4024 30.0636 98.7558 29.7699M101.727 25.8536L99.7661 31.3864H98.1727L98.3547 30.86C97.8755 31.2445 97.2882 31.4679 96.6758 31.4984C96.4332 31.509 96.1926 31.4505 95.9817 31.3296C95.7707 31.2087 95.5981 31.0304 95.4835 30.8152C95.212 30.2739 95.1575 29.6485 95.3312 29.068C95.5319 28.0845 96.0809 27.2076 96.8764 26.6003C97.7578 25.9306 98.8443 25.5913 99.9481 25.6408C100.54 25.6345 101.131 25.6984 101.709 25.8312M95.2161 25.7603L93.229 31.3864H91.6355L93.6301 25.7603H95.2161ZM94.1315 24.1848C94.1773 23.9491 94.3008 23.7357 94.4821 23.5792C94.6634 23.4227 94.8919 23.3323 95.1307 23.3224C95.2325 23.3197 95.3335 23.3408 95.4257 23.3843C95.5179 23.4277 95.5988 23.4922 95.6618 23.5726C95.7265 23.6589 95.7703 23.7592 95.7896 23.8654C95.8089 23.9717 95.8033 24.0811 95.7732 24.1848C95.7197 24.4296 95.5895 24.6508 95.4018 24.8158C95.2198 24.9671 94.9918 25.0514 94.7555 25.0547C94.6559 25.0574 94.557 25.0372 94.4663 24.9958C94.3756 24.9545 94.2954 24.8929 94.2318 24.8158C94.1709 24.724 94.131 24.6199 94.115 24.5108C94.0989 24.4017 94.1071 24.2904 94.139 24.1848M89.1432 30.0611L90.1647 27.1379C90.0333 27.1165 89.9003 27.1065 89.7672 27.108C89.2443 27.097 88.7337 27.2685 88.3224 27.5934C87.9312 27.8942 87.6577 28.3237 87.5498 28.8067C87.5025 28.9698 87.4936 29.1418 87.5239 29.309C87.5542 29.4762 87.6228 29.634 87.7244 29.7699C87.8473 29.9008 87.9979 30.0023 88.165 30.067C88.3321 30.1316 88.5116 30.1576 88.6901 30.1432C88.8428 30.1346 88.9945 30.1121 89.1432 30.076M93.229 22.9192L90.291 31.323C89.672 31.4384 89.0446 31.5021 88.4152 31.5134C87.4607 31.5134 86.7587 31.267 86.3055 30.7667C85.8524 30.2664 85.7261 29.6206 85.9081 28.7992C86.0959 27.9139 86.5844 27.122 87.2898 26.5592C88.0179 25.948 88.9413 25.6218 89.8898 25.6408C90.1458 25.645 90.4014 25.665 90.655 25.7006L91.6318 22.9043L93.229 22.9192ZM82.3535 25.7603L82.1121 26.3912C82.6858 25.9466 83.3797 25.6864 84.103 25.6446C84.2885 25.627 84.4754 25.6605 84.6435 25.7413C84.8116 25.8222 84.9547 25.9475 85.0575 26.1038C85.1559 26.3 85.2147 26.5138 85.2306 26.7329C85.2465 26.952 85.2193 27.1721 85.1504 27.3806C85.1154 27.5514 85.0695 27.7197 85.013 27.8846L83.791 31.3902H82.205L83.3824 28.0302C83.4259 27.936 83.4583 27.837 83.479 27.7352C83.5904 27.179 83.479 26.9064 83.1558 26.9064C82.8327 26.9064 82.2718 27.1864 81.6367 27.7726L80.3627 31.3976H78.7692L80.7601 25.7603H82.3535ZM80.0878 22.9192L77.1164 31.4014H75.4004L78.3718 22.9192H80.0878ZM73.4764 22.9192L70.505 31.4014H68.9264L71.8978 22.9192H73.4764ZM66.4192 29.7662L67.3478 27.067C67.2364 27.067 67.1175 27.067 67.0172 27.067C66.7273 27.0553 66.438 27.104 66.1676 27.21C65.8973 27.316 65.6516 27.477 65.4461 27.683C65.0349 28.0842 64.7507 28.5985 64.629 29.1614C64.5429 29.4216 64.5548 29.7046 64.6624 29.9566C64.7081 30.0502 64.7806 30.128 64.8706 30.1799C64.9606 30.2318 65.064 30.2554 65.1675 30.2478C65.6257 30.2158 66.0629 30.0424 66.4192 29.7512M69.3907 25.835L67.4407 31.3864H65.8547L66.0404 30.86C65.5606 31.241 64.9757 31.4639 64.3652 31.4984C64.1184 31.5133 63.8725 31.4573 63.6561 31.337C63.4397 31.2167 63.2619 31.037 63.1432 30.819C62.8775 30.276 62.8232 29.6529 62.991 29.0718C63.1903 28.0877 63.7396 27.2104 64.5361 26.604C65.4203 25.9341 66.5091 25.5948 67.6152 25.6446C68.2062 25.6388 68.7959 25.7027 69.3721 25.835M62.471 24.5582L62.0029 25.7603H63.173L62.6938 26.9923H61.5164L60.8181 28.8291C60.7569 28.9677 60.7121 29.1131 60.6844 29.2622C60.5692 29.7662 60.6844 30.0088 61.0075 30.0088C61.3539 29.9587 61.6878 29.8434 61.9918 29.6691L61.6687 31.1624C61.2219 31.3931 60.7295 31.5206 60.2275 31.5358C60.0133 31.551 59.7987 31.5114 59.6038 31.4206C59.409 31.3299 59.2402 31.191 59.1132 31.0168C58.9988 30.812 58.9264 30.5863 58.9003 30.3529C58.8741 30.1195 58.8948 29.8832 58.961 29.6579C59.0092 29.4974 59.0575 29.3331 59.1132 29.1688L59.9638 27.0147H58.8867L59.3547 25.7827H60.4392L60.8887 24.5918L62.471 24.5582ZM58.5895 25.7603L56.6061 31.3864H55.0201L56.9961 25.7603H58.5895ZM57.4938 24.1848C57.5488 23.9459 57.6791 23.7311 57.8652 23.5726C58.0446 23.4177 58.2714 23.3294 58.5078 23.3224C58.6102 23.3191 58.712 23.34 58.8049 23.3834C58.8978 23.4269 58.9793 23.4917 59.0427 23.5726C59.1027 23.6612 59.1436 23.7614 59.1628 23.8669C59.1819 23.9723 59.179 24.0806 59.1541 24.1848C59.0947 24.4273 58.9655 24.6468 58.7827 24.8158C58.6002 24.9638 58.3745 25.0477 58.1401 25.0547C58.0402 25.0597 57.9405 25.0406 57.8494 24.9991C57.7583 24.9575 57.6784 24.8947 57.6164 24.8158C57.5524 24.7255 57.5092 24.6221 57.4899 24.5129C57.4706 24.4038 57.4758 24.2917 57.505 24.1848M52.3235 32.6334C52.3755 32.372 52.1638 32.1779 51.6958 32.0771L51.031 31.9166C50.8123 31.9298 50.5981 31.9842 50.3995 32.0771C50.2802 32.1096 50.1715 32.1734 50.0847 32.262C49.9979 32.3505 49.9361 32.4606 49.9055 32.5811C49.8238 32.9768 50.173 33.1672 50.9604 33.1672C51.2905 33.181 51.6207 33.1394 51.9372 33.044C52.0295 33.0143 52.1124 32.9607 52.1775 32.8886C52.2427 32.8165 52.2879 32.7285 52.3087 32.6334M52.2418 28.9C52.8175 28.9 53.189 28.4894 53.3561 27.683C53.3857 27.5861 53.3954 27.4841 53.3845 27.3834C53.3737 27.2826 53.3425 27.1851 53.293 27.0968C53.2343 27.0222 53.1581 26.9633 53.0712 26.9255C52.9844 26.8877 52.8895 26.8722 52.7952 26.8803C52.2158 26.8803 51.8332 27.2872 51.6401 28.1198C51.5324 28.6312 51.7218 28.9 52.227 28.9M56.0861 25.7603L55.6627 26.9923H54.8121C54.8704 27.2906 54.8704 27.5975 54.8121 27.8958C54.6828 28.4769 54.3557 28.9945 53.8872 29.3592C53.3851 29.7561 52.7616 29.9659 52.123 29.9528C51.8742 29.946 51.6254 29.9635 51.3801 30.0051C51.3134 30.0116 51.2507 30.0399 51.2017 30.0858C51.1527 30.1317 51.1201 30.1926 51.109 30.259C51.0904 30.3262 51.109 30.3859 51.213 30.4606C51.5776 30.5693 51.9502 30.6492 52.3272 30.6995C52.9847 30.8152 53.4415 31.0019 53.657 31.3043C53.7755 31.462 53.856 31.6453 53.8921 31.8397C53.9282 32.034 53.9189 32.2342 53.865 32.4243C53.6012 33.6414 52.5464 34.2611 50.7041 34.2611C50.0747 34.3083 49.4447 34.1791 48.8841 33.8878C48.7072 33.7889 48.5682 33.6334 48.4895 33.446C48.4107 33.2586 48.3967 33.05 48.4495 32.8536C48.5721 32.316 49.0995 31.8792 50.043 31.5955C49.8503 31.507 49.6942 31.354 49.6014 31.1627C49.5086 30.9713 49.4848 30.7535 49.5341 30.5464C49.6492 30.0238 50.0838 29.6766 50.8378 29.5086C50.5833 29.333 50.3906 29.081 50.2872 28.7886C50.1838 28.4962 50.175 28.1785 50.2621 27.8808C50.4087 27.2799 50.7628 26.7507 51.2612 26.3875C51.7859 25.9649 52.4425 25.7427 53.1147 25.7603H56.0861ZM49.7718 25.7603L47.7884 31.4014H46.2024L48.1598 25.7603H49.7718ZM48.6575 24.1848C48.713 23.9461 48.8432 23.7315 49.029 23.5726C49.2068 23.42 49.4305 23.332 49.6641 23.3224C49.7663 23.3208 49.8675 23.3424 49.9601 23.3858C50.0527 23.4291 50.1344 23.493 50.199 23.5726C50.2615 23.6599 50.3031 23.7607 50.3205 23.8669C50.3379 23.9731 50.3306 24.0819 50.2992 24.1848C50.2407 24.4276 50.1114 24.6473 49.9278 24.8158C49.7446 24.9677 49.5153 25.052 49.2778 25.0547C49.1786 25.0582 49.08 25.0384 48.9897 24.997C48.8995 24.9555 48.8201 24.8935 48.7578 24.8158C48.6979 24.7236 48.6572 24.6201 48.638 24.5117C48.6189 24.4033 48.6217 24.2921 48.6464 24.1848M41.6524 24.3304L39.6912 29.9827H41.2884C41.6859 29.9897 42.0807 29.917 42.45 29.7689C42.8192 29.6209 43.1554 29.4004 43.439 29.1203C44.0434 28.5569 44.4554 27.8161 44.6164 27.0035C44.712 26.6766 44.734 26.3325 44.6807 25.996C44.6273 25.6595 44.5001 25.3392 44.3081 25.0584C44.0856 24.7975 43.8045 24.5937 43.4879 24.4639C43.1714 24.334 42.8287 24.2819 42.4881 24.3118L41.6524 24.3304ZM40.4527 22.9192H43.1195C44.4641 22.9192 45.4075 23.2926 45.9535 24.0691C46.4995 24.8456 46.6332 25.835 46.3732 27.0558C46.1274 28.2559 45.5082 29.3463 44.6052 30.1694C43.8127 30.955 42.7469 31.3995 41.6338 31.4088H37.4961L40.4527 22.9192Z" fill="white"/>
<path fill-rule="evenodd" clip-rule="evenodd" d="M38.1634 37.1838H39.0808C39.3819 37.1936 39.6771 37.0987 39.9165 36.915C40.0154 36.8282 40.0932 36.7199 40.1441 36.5982C40.1949 36.4766 40.2175 36.3449 40.21 36.2131C40.2173 36.0798 40.1947 35.9465 40.1439 35.8231C40.0931 35.6997 40.0154 35.5893 39.9165 35.5001C39.6788 35.3142 39.3814 35.2225 39.0808 35.2425H38.1634V37.1838ZM38.1634 37.6953V39.8531H37.6211V34.7198H38.962C39.4362 34.6948 39.9056 34.8259 40.2991 35.0931C40.4632 35.2277 40.5934 35.3992 40.6792 35.5938C40.765 35.7884 40.804 36.0006 40.7931 36.2131C40.8014 36.421 40.761 36.628 40.6752 36.8173C40.5894 37.0067 40.4606 37.1731 40.2991 37.3033C39.9107 37.5834 39.4394 37.7229 38.962 37.699L38.1634 37.6953Z" fill="white"/>
<path fill-rule="evenodd" clip-rule="evenodd" d="M42.9778 39.3576C43.1441 39.3615 43.3094 39.3303 43.463 39.266C43.6165 39.2017 43.7549 39.1057 43.8693 38.9842C43.9902 38.8585 44.0853 38.71 44.149 38.5473C44.2127 38.3846 44.2439 38.2108 44.2407 38.036C44.2457 37.8615 44.2154 37.6877 44.1515 37.5254C44.0877 37.363 43.9916 37.2154 43.8693 37.0914C43.7582 36.9638 43.6211 36.8617 43.4673 36.7921C43.3135 36.7225 43.1465 36.6871 42.9778 36.6882C42.8071 36.6845 42.6377 36.7187 42.4817 36.7884C42.3256 36.8581 42.1869 36.9616 42.0753 37.0914C41.9534 37.2157 41.8577 37.3634 41.7939 37.5257C41.7301 37.688 41.6995 37.8615 41.7038 38.036C41.6982 38.389 41.8317 38.7299 42.0753 38.9842C42.1903 39.1079 42.3304 39.2053 42.4861 39.2697C42.6419 39.3341 42.8096 39.3641 42.9778 39.3576ZM42.9778 39.8653C42.7387 39.8752 42.5002 39.8341 42.2781 39.7447C42.0559 39.6552 41.8551 39.5195 41.689 39.3464C41.3612 38.9814 41.1797 38.5072 41.1797 38.0154C41.1797 37.5237 41.3612 37.0495 41.689 36.6845C42.0327 36.3459 42.4947 36.1562 42.976 36.1562C43.4572 36.1562 43.9193 36.3459 44.263 36.6845C44.587 37.0514 44.7659 37.5249 44.7659 38.0154C44.7659 38.506 44.587 38.9795 44.263 39.3464C44.0978 39.5187 43.8983 39.654 43.6774 39.7435C43.4566 39.8329 43.2195 39.8744 42.9816 39.8653" fill="white"/>
<path fill-rule="evenodd" clip-rule="evenodd" d="M46.905 38.9346L47.9078 36.0898H48.2384L49.2598 38.9309L50.3295 36.1421H50.8273L49.3935 39.8568H49.0667L48.0638 37.0717L47.0498 39.8568H46.7267L45.293 36.1421H45.8427L46.905 38.9346Z" fill="white"/>
<path fill-rule="evenodd" clip-rule="evenodd" d="M53.8567 37.5652C53.8241 37.3698 53.7423 37.186 53.619 37.0313C53.5241 36.9153 53.4034 36.8235 53.2666 36.7632C53.1298 36.7028 52.9807 36.6758 52.8316 36.6841C52.6884 36.6892 52.5479 36.7251 52.4197 36.7895C52.2916 36.854 52.1787 36.9453 52.0887 37.0575C51.9748 37.2119 51.8881 37.3849 51.8324 37.5689L53.8567 37.5652ZM51.7582 38.0057C51.7571 38.1797 51.7911 38.3521 51.8581 38.5125C51.9251 38.6729 52.0238 38.818 52.1482 38.9391C52.2687 39.0672 52.4146 39.1686 52.5764 39.2367C52.7382 39.3049 52.9124 39.3383 53.0879 39.3348C53.3033 39.3354 53.5171 39.2975 53.7193 39.2228C53.9338 39.1365 54.1342 39.0182 54.3136 38.8719L54.4324 38.7711V39.346H54.3953C54.2107 39.5063 53.9995 39.6327 53.7713 39.7193C53.4313 39.8408 53.065 39.8681 52.7108 39.7985C52.3567 39.7289 52.0276 39.5649 51.7582 39.3236C51.5864 39.15 51.452 38.9428 51.3632 38.7148C51.2744 38.4868 51.2331 38.2429 51.2419 37.9983C51.2222 37.5129 51.3808 37.0371 51.6876 36.6617C51.8272 36.4931 52.003 36.3585 52.2018 36.268C52.4005 36.1775 52.6171 36.1334 52.8353 36.1391C53.0566 36.1266 53.2778 36.164 53.4829 36.2487C53.6879 36.3333 53.8715 36.4629 54.0202 36.6281C54.2984 36.9895 54.4429 37.437 54.4287 37.8937V37.9684L51.7582 38.0057Z" fill="white"/>
<path fill-rule="evenodd" clip-rule="evenodd" d="M56.0866 36.6833C56.1569 36.552 56.2525 36.4361 56.3679 36.3424C56.4834 36.2487 56.6163 36.1791 56.7588 36.1377C56.9013 36.0964 57.0507 36.084 57.198 36.1014C57.3454 36.1188 57.4878 36.1656 57.6169 36.2391C57.6244 36.2395 57.6317 36.2422 57.6377 36.2469C57.6436 36.2515 57.6481 36.2579 57.6503 36.2652V36.8476C57.6169 36.8289 57.6503 36.8476 57.6057 36.8476C56.7663 36.3772 56.2537 37.0529 56.0866 37.5121V39.8492H55.5703V36.1159H56.0866V36.6833Z" fill="white"/>
<path fill-rule="evenodd" clip-rule="evenodd" d="M61.4232 35.2575H59.7852V34.7871H63.6109V35.2575H61.9729V39.801H61.4232V35.2575Z" fill="white"/>
<path fill-rule="evenodd" clip-rule="evenodd" d="M70.3409 35.3367V36.9757H72.4135V37.461H70.3409V39.2941H72.7998V39.7831H69.7949V34.8477H72.7032V35.3367H70.3409Z" fill="white"/>
<path fill-rule="evenodd" clip-rule="evenodd" d="M74.2856 36.6126C74.4093 36.4579 74.566 36.333 74.744 36.247C74.922 36.1611 75.117 36.1164 75.3145 36.1161C75.4947 36.1093 75.6744 36.1411 75.8415 36.2093C76.0086 36.2775 76.1594 36.3806 76.2839 36.5118C76.3655 36.6003 76.4365 36.698 76.4956 36.803L76.5699 36.6798C76.697 36.5071 76.8619 36.366 77.0519 36.2676C77.2419 36.1692 77.4519 36.1161 77.6656 36.1123C77.8459 36.1051 78.0257 36.1366 78.1929 36.2049C78.3601 36.2731 78.5108 36.3765 78.6351 36.5081C78.7613 36.6431 78.8592 36.8022 78.923 36.976C78.9869 37.1498 79.0152 37.3348 79.0065 37.5198V39.7299H78.4679V37.5422C78.4799 37.2973 78.3959 37.0573 78.2339 36.8739C78.1566 36.7869 78.0605 36.7188 77.953 36.6748C77.8455 36.6308 77.7294 36.6121 77.6136 36.6201C77.4609 36.6274 77.3117 36.6687 77.1769 36.741C77.042 36.8133 76.9247 36.9148 76.8336 37.0382C76.7647 37.1075 76.7048 37.1853 76.6553 37.2697V39.7299H76.1168V37.5422C76.1235 37.4208 76.1063 37.2993 76.0662 37.1846C76.026 37.0699 75.9637 36.9643 75.8828 36.8739C75.8046 36.788 75.7084 36.7206 75.6011 36.6767C75.4938 36.6328 75.3781 36.6134 75.2625 36.6201C75.1088 36.6278 74.9587 36.6693 74.8227 36.7415C74.6867 36.8138 74.568 36.915 74.475 37.0382C74.4095 37.1114 74.3487 37.1887 74.2931 37.2697V39.7299H73.7656V36.1833H74.2856V36.6126Z" fill="white"/>
<path d="M80.1582 36.1913H80.6968V36.6393C80.8095 36.4488 80.988 36.3066 81.1982 36.2398C81.5167 36.1114 81.8653 36.0784 82.2021 36.1446C82.5388 36.2109 82.8494 36.3736 83.0962 36.6131C83.4075 36.9909 83.5793 37.4652 83.5827 37.9557C83.5861 38.4462 83.4208 38.9228 83.1148 39.3049C82.4685 40.0142 81.5213 39.8537 80.7488 39.443L80.6968 39.4094V41.1379H80.1582V36.1913ZM82.3273 36.8371C81.8816 36.5459 81.2316 36.6131 80.7079 37.3187V38.7635C81.2539 39.3534 81.9596 39.4094 82.4276 39.0659C82.5917 38.9258 82.7216 38.7498 82.8076 38.5514C82.8935 38.353 82.9332 38.1374 82.9235 37.9212C82.9138 37.7051 82.8551 37.494 82.7517 37.3041C82.6484 37.1143 82.5032 36.9507 82.3273 36.8259" fill="white"/>
<path d="M46.5775 32.2383H36.4004V32.8281H46.5775V32.2383Z" fill="white"/>
<path d="M101.074 32.2383H54.7715V32.8281H101.074V32.2383Z" fill="white"/>
<path fill-rule="evenodd" clip-rule="evenodd" d="M65.075 39.2592C65.2415 39.2648 65.4073 39.2344 65.5611 39.17C65.7149 39.1056 65.8531 39.0087 65.9664 38.8859C66.2087 38.6322 66.3421 38.293 66.3378 37.9413C66.3405 37.5878 66.2075 37.2468 65.9664 36.9893C65.8552 36.8639 65.7173 36.7652 65.563 36.7006C65.4087 36.6359 65.2419 36.607 65.075 36.616C64.9072 36.6096 64.7401 36.6396 64.585 36.704C64.4298 36.7684 64.2904 36.8658 64.1761 36.9893C63.932 37.2449 63.7984 37.5871 63.8047 37.9413C63.8009 38.1157 63.8319 38.2891 63.8956 38.4513C63.9594 38.6134 64.0548 38.7612 64.1761 38.8859C64.2918 39.0076 64.4316 39.1036 64.5863 39.1679C64.7411 39.2322 64.9075 39.2633 65.075 39.2592ZM65.075 39.7707C64.8361 39.7785 64.5982 39.7364 64.3764 39.6471C64.1545 39.5578 63.9535 39.4232 63.7861 39.2517C63.6175 39.0762 63.4856 38.8685 63.3981 38.6409C63.3107 38.4132 63.2696 38.1703 63.2772 37.9264C63.2661 37.6799 63.3055 37.4337 63.393 37.2031C63.4806 36.9725 63.6144 36.7625 63.7861 36.5861C63.9523 36.4126 64.1529 36.2761 64.3749 36.1855C64.597 36.0948 64.8354 36.052 65.075 36.0597C65.3135 36.0509 65.5512 36.0932 65.7722 36.184C65.9931 36.2748 66.1923 36.4119 66.3564 36.5861C66.5269 36.7607 66.6605 36.968 66.7492 37.1958C66.8379 37.4236 66.8799 37.667 66.8727 37.9115C66.8785 38.1558 66.8358 38.3988 66.7471 38.6263C66.6585 38.8539 66.5257 39.0614 66.3564 39.2368C66.1898 39.4073 65.99 39.5414 65.7695 39.6307C65.549 39.72 65.3126 39.7625 65.075 39.7557" fill="white"/>
<path fill-rule="evenodd" clip-rule="evenodd" d="M86.0416 39.2593C86.2079 39.263 86.3731 39.2317 86.5266 39.1674C86.6801 39.1031 86.8185 39.0073 86.933 38.886C87.176 38.6327 87.3095 38.2932 87.3044 37.9414C87.3079 37.5877 87.1747 37.2465 86.933 36.9894C86.8184 36.8668 86.68 36.7691 86.5264 36.7023C86.3727 36.6355 86.2071 36.601 86.0397 36.601C85.8723 36.601 85.7067 36.6355 85.5531 36.7023C85.3994 36.7691 85.2611 36.8668 85.1464 36.9894C85.0245 37.1152 84.9289 37.2643 84.8651 37.4277C84.8013 37.5912 84.7707 37.7659 84.775 37.9414C84.77 38.116 84.8003 38.2897 84.8642 38.4521C84.928 38.6144 85.0241 38.7621 85.1464 38.886C85.2609 39.0073 85.3993 39.1031 85.5529 39.1674C85.7064 39.2317 85.8716 39.263 86.0379 39.2593M86.0379 39.7708C85.7988 39.7802 85.5605 39.7389 85.3384 39.6495C85.1163 39.5601 84.9155 39.4246 84.749 39.2518C84.5795 39.0769 84.447 38.8693 84.3596 38.6415C84.2721 38.4138 84.2315 38.1705 84.2402 37.9265C84.2288 37.6793 84.2689 37.4325 84.3578 37.2017C84.4467 36.9709 84.5825 36.7613 84.7564 36.5862C84.9218 36.4116 85.1223 36.2743 85.3445 36.1836C85.5667 36.0928 85.8056 36.0506 86.0453 36.0598C86.2848 36.0523 86.5232 36.0952 86.7452 36.1859C86.9672 36.2765 87.1678 36.4129 87.3342 36.5862C87.5006 36.763 87.6306 36.9711 87.7167 37.1985C87.8027 37.426 87.8431 37.6683 87.8356 37.9116C87.8484 38.4024 87.6682 38.8786 87.3342 39.2369C87.1666 39.4081 86.9656 39.5426 86.7438 39.632C86.5219 39.7213 86.2841 39.7634 86.0453 39.7558" fill="white"/>
<path fill-rule="evenodd" clip-rule="evenodd" d="M89.9716 38.9789L90.9781 36.1191H91.3161L92.3227 38.9714L93.3924 36.1789H93.905L92.4713 39.8861H92.1444L91.1341 37.1085L90.1276 39.8861H89.797L88.3633 36.1789H88.9056L89.9716 38.9789Z" fill="white"/>
<path fill-rule="evenodd" clip-rule="evenodd" d="M96.942 37.5641C96.9112 37.3681 96.8292 37.1839 96.7043 37.0302C96.6102 36.9143 96.4901 36.8224 96.3539 36.7621C96.2177 36.7018 96.0692 36.6747 95.9206 36.683C95.7768 36.6853 95.6354 36.72 95.5068 36.7846C95.3782 36.8492 95.2657 36.9421 95.1777 37.0564C95.0593 37.208 94.9721 37.3819 94.9214 37.5678L96.942 37.5641ZM94.8471 38.0046C94.8456 38.1787 94.8794 38.3512 94.9465 38.5117C95.0135 38.6722 95.1124 38.8172 95.2371 38.938C95.3568 39.0652 95.5015 39.166 95.662 39.2341C95.8225 39.3022 95.9953 39.3362 96.1694 39.3337C96.3848 39.3335 96.5984 39.2956 96.8009 39.2217C97.0152 39.1396 97.2137 39.0209 97.3877 38.8708L97.5177 38.77V39.3449H97.4917C97.3028 39.505 97.088 39.6313 96.8566 39.7182C96.5154 39.8403 96.1478 39.868 95.7924 39.7984C95.4369 39.7288 95.1066 39.5644 94.836 39.3225C94.6662 39.1477 94.5332 38.9402 94.4452 38.7124C94.3571 38.4847 94.3157 38.2414 94.3234 37.9972C94.3071 37.5129 94.4639 37.0387 94.7654 36.6606C94.9131 36.4987 95.0922 36.3688 95.2916 36.2791C95.4911 36.1893 95.7068 36.1416 95.9253 36.1388C96.1438 36.136 96.3606 36.1782 96.5623 36.2628C96.764 36.3474 96.9463 36.4727 97.098 36.6308C97.3792 36.991 97.5264 37.4387 97.514 37.8964V37.971L94.8471 38.0046Z" fill="white"/>
<path fill-rule="evenodd" clip-rule="evenodd" d="M99.1723 36.6465C99.2436 36.5176 99.3394 36.4041 99.4544 36.3125C99.5694 36.2209 99.7013 36.153 99.8424 36.1128C99.9836 36.0726 100.131 36.0608 100.277 36.078C100.423 36.0953 100.564 36.1413 100.691 36.2134C100.691 36.2134 100.717 36.2134 100.732 36.2321V36.8369C100.688 36.7884 100.732 36.8369 100.688 36.8108C99.8446 36.3366 99.3358 37.0198 99.1686 37.4678V39.8049H98.6523V36.0865H99.1723V36.6465Z" fill="white"/>
</svg>
