<svg width="25" height="25" viewBox="0 0 25 25" fill="none" xmlns="http://www.w3.org/2000/svg">
<path d="M15.7174 11.4461C15.9372 11.499 16.1675 11.6012 16.3458 11.793C16.5346 11.9958 16.6177 12.248 16.6177 12.5022V12.7036V13.0069L16.3736 13.1867L14.7623 14.3736L14.7614 14.3742L13.1501 15.5567L12.9917 15.673H12.7951H12.4967H12.1983H12.0018L11.8434 15.5567L10.2321 14.3742L10.2312 14.3736L8.61991 13.1867L8.37575 13.0069V12.7036V12.5022C8.37575 12.2478 8.45909 11.9943 8.65042 11.7908C8.83034 11.5993 9.06229 11.4981 9.28335 11.4458C9.40197 11.4169 9.54698 11.3911 9.71424 11.4032C9.8852 11.4155 10.0406 11.4642 10.1903 11.5339C10.4438 11.6518 10.7496 11.8652 11.1627 12.1674L11.1806 10.407L11.1806 10.4069L11.1813 10.3408C11.1957 8.9475 11.2033 8.21351 11.2231 7.81673C11.2327 7.62501 11.2468 7.45805 11.2839 7.32164C11.3056 7.24194 11.3383 7.15891 11.391 7.07768C11.4401 7.00201 11.4931 6.94991 11.5144 6.92909M15.7174 11.4461C15.6057 11.4188 15.4627 11.3908 15.2971 11.4007C15.1258 11.4109 14.9712 11.4586 14.8225 11.5275C14.5667 11.6461 14.2514 11.8677 13.8129 12.1852V10.5401C13.8129 9.75939 13.8054 9.0293 13.7941 8.48144C13.7885 8.20795 13.7818 7.97717 13.7746 7.80714C13.7709 7.72271 13.767 7.64899 13.7626 7.59079C13.7605 7.56213 13.7578 7.53208 13.7544 7.50398L13.7542 7.50201C13.7524 7.48694 13.7455 7.42911 13.7263 7.36702C13.6888 7.24574 13.6278 7.1349 13.5655 7.04647C13.5062 6.96222 13.419 6.86011 13.3032 6.77906C13.1008 6.63371 12.8519 6.57246 12.6632 6.54974C12.4697 6.52645 12.2152 6.52873 11.987 6.61737L11.9838 6.61862C11.8257 6.68111 11.634 6.81037 11.5144 6.92909M15.7174 11.4461C15.7169 11.446 15.7164 11.4458 15.7159 11.4457L15.5761 12.0292L15.7187 11.4464C15.7183 11.4463 15.7179 11.4462 15.7174 11.4461ZM11.5144 6.92909C11.5133 6.93009 11.5123 6.93109 11.5113 6.9321L11.9357 7.35616L11.5161 6.92735L11.5149 6.92852C11.5148 6.92871 11.5146 6.92889 11.5144 6.92909ZM7.20709 14.2744L7.20707 14.2745C7.08706 14.2388 6.93118 14.1931 6.75511 14.1944C6.57853 14.1956 6.42488 14.2437 6.30605 14.282C6.30374 14.2827 6.30136 14.2835 6.29892 14.2842C6.21118 14.3114 6.04383 14.3633 5.89737 14.4733C5.70882 14.6149 5.6093 14.8025 5.55747 14.9938C5.51227 15.1606 5.49731 15.353 5.48983 15.5507C5.48205 15.7567 5.48138 16.0198 5.48138 16.3474C5.48138 16.9022 5.48214 17.2398 5.502 17.4479C5.51232 17.5559 5.53171 17.6839 5.58667 17.8101C5.64909 17.9535 5.73506 18.043 5.78357 18.0911C5.85395 18.1613 5.93651 18.2232 6.00739 18.2697C6.07293 18.3127 6.17014 18.37 6.27648 18.407C6.34375 18.4307 6.40408 18.4394 6.42486 18.4424L6.42575 18.4426C6.46074 18.4476 6.49742 18.4512 6.53223 18.454C6.60261 18.4596 6.69335 18.4641 6.80381 18.4679C7.02623 18.4756 7.35526 18.4814 7.81753 18.4857C8.74357 18.4945 10.2233 18.4978 12.4967 18.4978C14.7701 18.4978 16.2499 18.4945 17.1759 18.4857C17.6382 18.4814 17.9672 18.4756 18.1897 18.4679C18.3001 18.4641 18.3909 18.4596 18.4612 18.454C18.496 18.4512 18.5327 18.4476 18.5677 18.4426L18.5686 18.4424C18.5895 18.4394 18.6504 18.4306 18.7182 18.4066C18.8241 18.3696 18.9208 18.3126 18.9861 18.2697C19.0569 18.2233 19.1395 18.1613 19.2098 18.0911M7.20709 14.2744L18.7868 17.6657M7.20709 14.2744L7.21368 14.2765C7.31202 14.3069 7.46544 14.3566 7.60595 14.4545C7.77242 14.5706 7.88456 14.7258 7.95259 14.9078C8.01181 15.0662 8.03494 15.2386 8.048 15.3998C8.06149 15.5663 8.06727 15.7695 8.07172 16.0095L8.07946 16.2905H12.4967H16.9139M7.20709 14.2744L17.4977 16.8905M19.2098 18.0911C19.2103 18.0907 19.2107 18.0902 19.2112 18.0898L18.7868 17.6657M19.2098 18.0911C19.2096 18.0914 19.2093 18.0917 19.209 18.0919L18.7868 17.6657M19.2098 18.0911C19.2584 18.043 19.3444 17.9535 19.4068 17.8101C19.4618 17.6839 19.4811 17.5559 19.4915 17.4479C19.5113 17.2398 19.5121 16.9022 19.5121 16.3474C19.5121 16.0157 19.5114 15.7496 19.5031 15.5418C19.4952 15.343 19.4791 15.1462 19.4291 14.9749C19.3703 14.7737 19.2597 14.5894 19.0662 14.4546C18.9233 14.3551 18.7589 14.3044 18.6687 14.2767C18.6636 14.2751 18.6587 14.2736 18.6541 14.2722L18.6479 14.2702L18.6479 14.2703C18.5502 14.2412 18.4205 14.2039 18.2695 14.2C18.1169 14.1961 17.9833 14.2269 17.8724 14.2557L17.8696 14.2564C17.761 14.2851 17.6005 14.3289 17.4546 14.4145C17.2776 14.5183 17.1435 14.6682 17.0594 14.8651C16.9874 15.0335 16.9611 15.2165 16.9468 15.3813C16.9319 15.552 16.9262 15.7607 16.9217 16.0053M18.7868 17.6657C18.9061 17.5474 18.9121 17.4905 18.9121 16.3474C18.9121 15.0073 18.9001 14.9766 18.4764 14.8453C18.2855 14.7883 18.2258 14.7839 18.0229 14.8365C17.5753 14.9547 17.5395 15.0292 17.5216 16.019M16.9217 16.0053L16.9218 16.0026L17.5216 16.019M16.9217 16.0053C16.9217 16.0063 16.9217 16.0072 16.9217 16.0081L17.5216 16.019M16.9217 16.0053L16.9139 16.2905M17.5216 16.019L17.4977 16.8905M17.4977 16.8905V16.2905H16.9139M17.4977 16.8905L16.8979 16.8741L16.9139 16.2905M20.5321 6.62043L20.5318 6.62043C19.4169 6.61388 18.7871 6.60841 18.418 6.59543C18.0793 6.58352 17.8578 6.56708 17.6544 6.47156L17.6509 6.46989C17.6458 6.46746 17.6394 6.46451 17.6318 6.46103C17.5631 6.42941 17.3987 6.35388 17.2703 6.22657C17.0955 6.05325 17.0261 5.84371 16.9912 5.65382C16.9581 5.47381 16.9449 5.24604 16.9371 4.96861C16.9296 4.70117 16.9265 4.353 16.9224 3.90384L16.9216 3.8147L16.9216 3.81417L16.9096 2.60037L10.48 2.60438H10.4796C7.57877 2.60438 5.81499 2.60767 4.75433 2.61695C4.22323 2.6216 3.87342 2.62771 3.64706 2.63544C3.53347 2.63932 3.45683 2.64342 3.40669 2.64737C3.3902 2.64867 3.37873 2.64981 3.37146 2.65061C3.25994 2.68352 3.13145 2.73734 3.01257 2.80196C2.8806 2.87371 2.79938 2.93757 2.76945 2.9686C2.73765 3.00246 2.70847 3.03029 2.68878 3.04883C2.67085 3.13065 2.64495 3.33672 2.6282 3.84811C2.59537 4.85062 2.59793 6.80036 2.60309 10.7322C2.60384 11.3038 2.60464 11.9172 2.6054 12.5757C2.6054 12.5758 2.6054 12.5759 2.6054 12.576L2.62296 21.8543L2.65776 21.9065C2.75388 22.046 2.99805 22.2385 3.26066 22.3353L3.44068 22.4H12.4967H21.5528L21.7311 22.336C21.7316 22.3358 21.7322 22.3356 21.7328 22.3353C21.9954 22.2385 22.2397 22.046 22.3357 21.9064C22.3362 21.9058 22.3366 21.9051 22.3371 21.9045L22.3706 21.8542L22.3881 14.0341V14.0337L22.3991 6.63038L20.5321 6.62043Z" stroke="#506285" stroke-width="1.2"/>
<path d="M19.3119 2.73409C19.2976 2.72358 19.2836 2.71326 19.2699 2.70312C19.2606 3.04141 19.2531 3.44098 19.2531 3.75199V4.67827H20.636H21.528L19.3119 2.73409Z" stroke="#506285" stroke-width="0.6"/>
</svg>
