<svg width="25" height="25" viewBox="0 0 25 25" fill="none" xmlns="http://www.w3.org/2000/svg">
<path d="M3.23464 2.06569C2.90044 2.15767 2.51254 2.36788 2.33351 2.55621C1.96947 2.94599 1.99334 2.21898 2.00528 12.5766L2.02318 22.0365L2.16044 22.2423C2.33947 22.5051 2.69754 22.7679 3.05561 22.8993L3.33609 23H12.4966H21.6571L21.9376 22.8993C22.2957 22.7679 22.6537 22.5051 22.8328 22.2423L22.97 22.0365L22.9879 14.035L22.9999 6.03358L20.5352 6.02044C18.2973 6.0073 18.0586 5.99854 17.9094 5.92847C17.5334 5.74891 17.5394 5.7927 17.5215 3.80876L17.5036 2L10.4795 2.00438C4.67884 2.00438 3.41367 2.01752 3.23464 2.06569ZM12.9561 7.26861C13.0397 7.32555 13.1232 7.44818 13.1531 7.54453C13.1829 7.6365 13.2127 8.9854 13.2127 10.5401V13.3606L14.1258 12.6993C15.0807 12.0073 15.2179 11.9416 15.576 12.0292C15.8684 12.0993 16.0176 12.2613 16.0176 12.5022V12.7036L14.4063 13.8905L12.795 15.073H12.4966H12.1982L10.5869 13.8905L8.97563 12.7036V12.5022C8.97563 12.2613 9.12482 12.0993 9.42321 12.0292C9.78128 11.9416 9.94837 12.0204 10.8853 12.708L11.7506 13.3431L11.7805 10.4131C11.8103 7.52263 11.8103 7.47883 11.9356 7.3562C12.0013 7.29051 12.1266 7.2073 12.2042 7.17664C12.4071 7.09781 12.7831 7.14161 12.9561 7.26861ZM7.0361 14.8496C7.41804 14.9679 7.45385 15.0555 7.47175 16.0234L7.49562 16.8905H12.4966H17.4976L17.5215 16.019C17.5394 15.0292 17.5752 14.9547 18.0228 14.8365C18.2257 14.7839 18.2853 14.7883 18.4763 14.8453C18.9 14.9766 18.912 15.0073 18.912 16.3474C18.912 17.4905 18.906 17.5474 18.7866 17.6657C18.721 17.7314 18.5957 17.8146 18.5181 17.8409C18.4047 17.8847 17.044 17.8978 12.4966 17.8978C7.94917 17.8978 6.58852 17.8847 6.47513 17.8409C6.39755 17.8146 6.27223 17.7314 6.20659 17.6657C6.08723 17.5474 6.08126 17.4905 6.08126 16.3474C6.08126 15.0248 6.0932 14.9766 6.48707 14.854C6.73175 14.7752 6.78546 14.7752 7.0361 14.8496Z" fill="#002266"/>
<path d="M18.953 3.75199V4.97827H20.6359H22.3248L20.6538 3.75199C19.7348 3.07754 18.9769 2.52572 18.9709 2.52572C18.959 2.52572 18.953 3.07754 18.953 3.75199Z" fill="#002266"/>
</svg>
