<svg width="133" height="41" viewBox="0 0 133 41" fill="none" xmlns="http://www.w3.org/2000/svg">
<g clip-path="url(#clip0_8649_21192)">
<path d="M133 15.8567C133 9.81615 127.965 4.9082 121.733 4.9082C115.501 4.9082 110.466 9.81615 110.466 15.8567C110.466 21.8973 115.501 26.8052 121.733 26.8052C126.454 26.8052 130.482 24.0115 132.182 20.0096H127.65C126.328 21.7462 124.188 22.9544 121.733 22.9544C118.019 22.9544 114.998 20.3116 114.494 16.8383H132.937C133 16.6118 133 16.2342 133 15.8567ZM114.746 13.7425C115.69 10.8733 118.46 8.75906 121.733 8.75906C125.006 8.75906 127.776 10.8733 128.72 13.7425H114.746Z" fill="white"/>
<path d="M22.5343 15.8567C22.5343 9.81615 17.4987 4.9082 11.2671 4.9082C5.03559 4.9082 0 9.81615 0 15.8567C0 21.8973 5.03559 26.8052 11.2671 26.8052C15.988 26.8052 20.0165 24.0115 21.716 20.0096H17.184C15.8621 21.7462 13.722 22.9544 11.2671 22.9544C7.55339 22.9544 4.53203 20.3116 4.02848 16.8383H22.4713C22.4713 16.6118 22.5343 16.2342 22.5343 15.8567ZM4.28026 13.7425C5.22443 10.8733 7.99401 8.75906 11.2671 8.75906C14.5403 8.75906 17.3099 10.8733 18.254 13.7425H4.28026Z" fill="#EFA921"/>
<path d="M96.9986 23.6329C92.5925 23.6329 89.0046 20.1596 89.0046 15.8557C89.0046 11.5518 92.5925 8.07849 96.9986 8.07849C99.5164 8.07849 101.719 9.21109 103.167 10.9477H108.203C106.252 6.79487 101.971 3.8501 96.9986 3.8501C90.2006 3.8501 84.7244 9.21109 84.7244 15.8557C84.7244 22.5003 90.2006 27.8613 96.9986 27.8613C101.971 27.8613 106.314 24.992 108.203 20.7637H103.167C101.719 22.5758 99.5164 23.6329 96.9986 23.6329Z" fill="white"/>
<path d="M78.4941 26.879H82.4597V7.09619H78.4941V26.879Z" fill="white"/>
<path d="M78.4941 5.66286H82.4597V1.81201H78.4941V5.66286Z" fill="white"/>
<path d="M72.2651 5.21064V7.17382H75.4124V10.3451H72.6428V26.9566H68.6773V10.3451H65.9077V7.17382H68.6773V5.21064C68.6773 5.21064 69.055 0.07617 74.4682 0.302691H75.7271V3.85152H74.4682C74.4682 3.77601 72.5799 3.54949 72.2651 5.21064Z" fill="white"/>
<path d="M60.8662 5.21064V7.17382H64.0135V10.3451H61.2439V26.9566H57.2784V10.3451H54.5088V7.17382H57.2784V5.21064C57.2784 5.21064 57.656 0.07617 63.0693 0.302691H64.3282V3.85152H63.0693C63.0693 3.77601 61.2439 3.54949 60.8662 5.21064Z" fill="white"/>
<path d="M2.9144 40.8307L2.88757 40.899H2.96094H3.71627H3.75151L3.76336 40.8658L4.31801 39.3133H6.51485L7.13177 40.8674L7.1443 40.899H7.17824H7.99653H8.07154L8.04268 40.8297L5.83961 35.5442L5.82679 35.5135H5.79346H5.03812H5.00404L4.99158 35.5452L2.9144 40.8307ZM6.28646 38.6848H4.60552L5.14771 37.1672L5.1479 37.1667C5.24839 36.9256 5.35031 36.6811 5.41975 36.3966C5.49125 36.6597 5.60055 36.9672 5.74713 37.3189L6.28646 38.6848Z" fill="white" stroke="white" stroke-width="0.1"/>
<path d="M10.2708 40.849V40.899H10.3208H12.2721H12.2773C12.5881 40.899 12.9089 40.899 13.1677 40.8213C13.4194 40.7459 13.614 40.6689 13.8082 40.5151C14.004 40.435 14.1977 40.2786 14.3278 40.0467C14.3939 39.9663 14.458 39.8497 14.5203 39.719C14.5838 39.5857 14.6471 39.4338 14.7098 39.2833L14.7102 39.2826L14.711 39.2829L14.7129 39.2735C14.7762 38.9702 14.8399 38.5888 14.8399 38.2062C14.8399 37.673 14.7763 37.2901 14.6485 36.9068C14.5202 36.522 14.3262 36.2101 14.0008 35.9759L14.0009 35.9758L13.9973 35.9736L13.9949 35.9722C13.7455 35.8226 13.489 35.6688 13.1685 35.5912C13.0668 35.5513 12.9354 35.5324 12.7786 35.523C12.6198 35.5135 12.4297 35.5135 12.2104 35.5135H12.2091H10.3208H10.2708V35.5635V40.849ZM13.4368 39.8283L13.4362 39.8275L13.4296 39.8354C13.3133 39.9749 13.1374 40.0464 12.9459 40.123C12.8584 40.158 12.7541 40.1763 12.6226 40.1856C12.491 40.1949 12.3356 40.1949 12.1462 40.1949H11.0624L11.001 36.2175H12.0833C12.3041 36.2175 12.4912 36.2176 12.6468 36.2269C12.8029 36.2362 12.9222 36.2548 13.0089 36.2895L13.0088 36.2897L13.0131 36.2909C13.2489 36.3617 13.4922 36.5773 13.6774 36.8736C13.8583 37.1628 13.9216 37.6034 13.9216 38.1307C13.9216 38.5784 13.8596 38.8762 13.7968 39.1776C13.7355 39.4715 13.6143 39.6864 13.4368 39.8283Z" fill="white" stroke="white" stroke-width="0.1"/>
<path d="M15.8746 40.849V40.899H15.9246H16.617H16.667V40.849V35.5635V35.5135H16.617H15.9246H15.8746V35.5635V40.849Z" fill="white" stroke="white" stroke-width="0.1"/>
<path d="M20.4025 38.8103V38.8603H20.4525H22.165V39.7676C22.0208 39.879 21.8748 39.9478 21.6591 40.0494C21.6112 40.0719 21.5599 40.096 21.5045 40.1226C21.255 40.1973 20.9473 40.2704 20.6414 40.2704C20.2712 40.2704 19.9639 40.1966 19.6559 40.0488C19.3506 39.9023 19.1063 39.683 18.9226 39.3898C18.739 39.022 18.6771 38.6533 18.6771 38.2062C18.6771 37.8336 18.7393 37.4629 18.8621 37.1684L18.8625 37.1685L18.8641 37.1625C18.9239 36.9476 19.0429 36.804 19.1691 36.6526C19.29 36.5076 19.4709 36.3631 19.7115 36.2909C19.9617 36.2159 20.271 36.142 20.5784 36.142C20.8209 36.142 21.0648 36.2146 21.3172 36.2903C21.4962 36.3624 21.6777 36.5072 21.7989 36.6526C21.9235 36.8021 22.0427 36.9453 22.1031 37.2348L22.1136 37.2853L22.1637 37.2733L22.7932 37.1222L22.8502 37.1085L22.8276 37.0544L22.8259 37.0501C22.7013 36.7512 22.573 36.4434 22.3793 36.211C22.1834 35.976 21.9235 35.8212 21.6072 35.6694L21.6077 35.6684L21.5972 35.6659C21.2815 35.5901 20.8992 35.5135 20.5155 35.5135C19.9461 35.5135 19.4315 35.589 19.042 35.8226C18.6572 36.0534 18.3361 36.3617 18.0799 36.8228L18.0796 36.8227L18.0774 36.8279C17.8869 37.2848 17.7588 37.7446 17.7588 38.2817C17.7588 38.8145 17.8223 39.2772 18.0799 39.7406C18.3364 40.2022 18.6583 40.5113 19.1078 40.7424L19.1076 40.7429L19.1145 40.7452C19.5555 40.8964 20.0659 41.05 20.5784 41.05C20.9629 41.05 21.3469 40.9731 21.73 40.8199C22.1103 40.6678 22.4299 40.5146 22.8127 40.2085L22.8315 40.1934V40.1694V38.2062V38.1562H22.7815H20.4525H20.4025V38.2062V38.8103Z" fill="white" stroke="white" stroke-width="0.1"/>
<path d="M23.8665 40.849V40.899H23.9165H24.6089H24.6589V40.849V35.5635V35.5135H24.6089H23.9165H23.8665V35.5635V40.849Z" fill="white" stroke="white" stroke-width="0.1"/>
<path d="M27.2678 40.849V40.899H27.3178H28.0102H28.0602V40.849V36.2175H29.8356H29.8856V36.1675V35.5635V35.5135H29.8356H25.4924H25.4424V35.5635V36.1675V36.2175H25.4924H27.2678V40.849Z" fill="white" stroke="white" stroke-width="0.1"/>
<path d="M29.3463 40.8307L29.3194 40.899H29.3928H30.2111H30.2463L30.2582 40.8658L30.8128 39.3133H32.9467L33.5637 40.8674L33.5762 40.899H33.6101H34.4284H34.5034L34.4746 40.8297L32.2715 35.5442L32.2587 35.5135H32.2253H31.47H31.4359L31.4235 35.5452L29.3463 40.8307ZM32.7183 38.6848H31.0374L31.5796 37.1672L31.5798 37.1667C31.6803 36.9256 31.7822 36.6811 31.8516 36.3966C31.9231 36.6597 32.0324 36.9672 32.179 37.3189L32.7183 38.6848Z" fill="white" stroke="white" stroke-width="0.1"/>
<path d="M35.0047 40.849V40.899H35.0547H38.4537H38.5037V40.849V40.2449V40.1949H38.4537H35.7971V35.5635V35.5135H35.7471H35.0547H35.0047V35.5635V40.849Z" fill="white" stroke="white" stroke-width="0.1"/>
<mask id="path-16-outside-1_8649_21192" maskUnits="userSpaceOnUse" x="39.6001" y="34.5635" width="9" height="7" fill="black">
<rect fill="white" x="39.6001" y="34.5635" width="9" height="7"/>
<path d="M42.0478 40.849L40.6001 35.5635H41.3554L42.1737 39.0368C42.2367 39.4143 42.3626 39.7919 42.4255 40.0939C42.5514 39.4898 42.6773 39.1878 42.6773 39.1123L43.6844 35.5635H44.5656L45.321 38.2817C45.5098 38.9613 45.6357 39.5653 45.7616 40.1694C45.8245 39.8674 45.9504 39.4143 46.0134 39.0368L46.8946 35.639H47.6499L46.1392 40.9245H45.4469L44.3138 36.9226C44.188 36.6206 44.188 36.3941 44.125 36.3185C44.0621 36.5451 43.9991 36.7716 43.9362 36.9226L42.8032 40.9245L42.0478 40.849Z"/>
</mask>
<path d="M42.0478 40.849L40.6001 35.5635H41.3554L42.1737 39.0368C42.2367 39.4143 42.3626 39.7919 42.4255 40.0939C42.5514 39.4898 42.6773 39.1878 42.6773 39.1123L43.6844 35.5635H44.5656L45.321 38.2817C45.5098 38.9613 45.6357 39.5653 45.7616 40.1694C45.8245 39.8674 45.9504 39.4143 46.0134 39.0368L46.8946 35.639H47.6499L46.1392 40.9245H45.4469L44.3138 36.9226C44.188 36.6206 44.188 36.3941 44.125 36.3185C44.0621 36.5451 43.9991 36.7716 43.9362 36.9226L42.8032 40.9245L42.0478 40.849Z" fill="white"/>
<path d="M42.0478 40.849L41.9514 40.8754L41.9695 40.9416L42.0379 40.9485L42.0478 40.849ZM40.6001 35.5635V35.4635H40.469L40.5037 35.5899L40.6001 35.5635ZM41.3554 35.5635L41.4528 35.5405L41.4346 35.4635H41.3554V35.5635ZM42.1737 39.0368L42.2726 39.0203L42.2711 39.0139L42.1737 39.0368ZM42.4255 40.0939L42.3276 40.1143H42.5234L42.4255 40.0939ZM42.6773 39.1123L42.5811 39.085L42.5773 39.0984V39.1123H42.6773ZM43.6844 35.5635V35.4635H43.6088L43.5882 35.5362L43.6844 35.5635ZM44.5656 35.5635L44.662 35.5367L44.6416 35.4635H44.5656V35.5635ZM45.321 38.2817L45.4173 38.255L45.4173 38.255L45.321 38.2817ZM45.7616 40.1694L45.6637 40.1898H45.8595L45.7616 40.1694ZM46.0134 39.0368L45.9162 39.0116L45.9147 39.0204L46.0134 39.0368ZM46.8946 35.639V35.539H46.8172L46.7978 35.6139L46.8946 35.639ZM47.6499 35.639L47.7461 35.6665L47.7825 35.539H47.6499V35.639ZM46.1392 40.9245V41.0245H46.2147L46.2354 40.952L46.1392 40.9245ZM45.4469 40.9245L45.3506 40.9517L45.3712 41.0245H45.4469V40.9245ZM44.3138 36.9226L44.4107 36.8952L44.4061 36.8841L44.3138 36.9226ZM44.125 36.3185L44.2018 36.2545L44.0797 36.108L44.0287 36.2918L44.125 36.3185ZM43.9362 36.9226L43.8432 36.8839L43.84 36.8954L43.9362 36.9226ZM42.8032 40.9245L42.7932 41.024L42.8766 41.0323L42.8994 40.9517L42.8032 40.9245ZM42.1443 40.8225L40.6965 35.5371L40.5037 35.5899L41.9514 40.8754L42.1443 40.8225ZM40.6001 35.6635H41.3554V35.4635H40.6001V35.6635ZM41.2581 35.5864L42.0764 39.0597L42.2711 39.0139L41.4528 35.5405L41.2581 35.5864ZM42.0751 39.0532C42.1074 39.2469 42.1556 39.4394 42.2029 39.6191C42.2507 39.8007 42.2968 39.9666 42.3276 40.1143L42.5234 40.0735C42.4912 39.9191 42.4429 39.7453 42.3963 39.5682C42.3492 39.3893 42.303 39.2043 42.2724 39.0204L42.0751 39.0532ZM42.5234 40.1143C42.5856 39.8157 42.6478 39.5919 42.6945 39.4331C42.7175 39.3551 42.738 39.2885 42.7518 39.24C42.7589 39.2152 42.7649 39.1926 42.7693 39.173C42.7733 39.1548 42.7773 39.1331 42.7773 39.1123H42.5773C42.5773 39.1104 42.5773 39.1146 42.574 39.1298C42.5709 39.1435 42.5662 39.1616 42.5595 39.1852C42.5457 39.2334 42.5269 39.2942 42.5027 39.3767C42.455 39.5388 42.3913 39.768 42.3276 40.0735L42.5234 40.1143ZM42.7735 39.1396L43.7806 35.5908L43.5882 35.5362L42.5811 39.085L42.7735 39.1396ZM43.6844 35.6635H44.5656V35.4635H43.6844V35.6635ZM44.4693 35.5903L45.2246 38.3085L45.4173 38.255L44.662 35.5367L44.4693 35.5903ZM45.2246 38.3085C45.4125 38.9845 45.5377 39.5855 45.6637 40.1898L45.8595 40.149C45.7336 39.5452 45.6071 38.9381 45.4173 38.255L45.2246 38.3085ZM45.8595 40.1898C45.9198 39.9004 46.049 39.4308 46.112 39.0532L45.9147 39.0204C45.8518 39.3979 45.7293 39.8343 45.6637 40.149L45.8595 40.1898ZM46.1102 39.0619L46.9914 35.6641L46.7978 35.6139L45.9166 39.0117L46.1102 39.0619ZM46.8946 35.739H47.6499V35.539H46.8946V35.739ZM47.5538 35.6115L46.0431 40.897L46.2354 40.952L47.7461 35.6665L47.5538 35.6115ZM46.1392 40.8245H45.4469V41.0245H46.1392V40.8245ZM45.5431 40.8972L44.4101 36.8954L44.2176 36.9498L45.3506 40.9517L45.5431 40.8972ZM44.4061 36.8841C44.3466 36.7414 44.3167 36.6161 44.2933 36.5135C44.282 36.4634 44.2712 36.4144 44.2593 36.3739C44.2478 36.3351 44.2314 36.29 44.2018 36.2545L44.0482 36.3826C44.0482 36.3826 44.0482 36.3826 44.0483 36.3827C44.0484 36.3829 44.0485 36.383 44.0487 36.3833C44.049 36.3838 44.0495 36.3845 44.0501 36.3855C44.0513 36.3875 44.0529 36.3905 44.0548 36.3946C44.0586 36.4032 44.0628 36.4148 44.0675 36.4307C44.0771 36.4633 44.0861 36.504 44.0983 36.5578C44.1222 36.6628 44.1552 36.8018 44.2215 36.9611L44.4061 36.8841ZM44.0287 36.2918C43.965 36.5208 43.9039 36.7402 43.8439 36.8841L44.0285 36.9611C44.0944 36.803 44.1591 36.5693 44.2214 36.3453L44.0287 36.2918ZM43.84 36.8954L42.707 40.8972L42.8994 40.9517L44.0324 36.9498L43.84 36.8954ZM42.8131 40.825L42.0578 40.7495L42.0379 40.9485L42.7932 41.024L42.8131 40.825Z" fill="white" mask="url(#path-16-outside-1_8649_21192)"/>
<path d="M48.4291 39.6688C48.6823 40.0484 49.0019 40.433 49.3889 40.6651L49.3888 40.6652L49.3918 40.6667C49.8365 40.8954 50.2851 41.0498 50.7994 41.0498C51.3096 41.0498 51.6953 40.973 52.1441 40.7422L52.1442 40.7423L52.147 40.7407C52.5317 40.5099 52.8529 40.2016 53.1091 39.7405L53.1094 39.7406L53.1116 39.7354C53.302 39.2784 53.4301 38.8187 53.4301 38.2816C53.4301 37.7444 53.302 37.2847 53.1116 36.8277L53.1119 36.8276L53.1091 36.8226C52.8529 36.3615 52.5317 36.0532 52.147 35.8224L52.147 35.8224L52.1441 35.8209C51.6994 35.5922 51.2507 35.4378 50.7365 35.4378C49.9706 35.4378 49.3276 35.6679 48.8132 36.207C48.2969 36.6724 48.0428 37.3672 48.0428 38.2816C48.0428 38.7397 48.1065 39.2042 48.4291 39.6688ZM48.4291 39.6688C48.429 39.6687 48.4289 39.6685 48.4288 39.6684L48.4704 39.6407M48.4291 39.6688C48.4292 39.6689 48.4293 39.6691 48.4294 39.6692L48.4704 39.6407M48.4704 39.6407C48.7222 40.0182 49.037 40.3957 49.4146 40.6223L48.4704 39.6407ZM51.96 39.7563L51.9599 39.7562L51.9569 39.7597C51.6548 40.1222 51.2307 40.2702 50.6735 40.2702C50.1821 40.2702 49.7553 40.1237 49.3886 39.7579C49.0831 39.3906 48.8981 38.8744 48.8981 38.2816C48.8981 37.5348 49.0847 36.9443 49.3886 36.5786C49.7553 36.2129 50.1821 36.0663 50.6735 36.0663C50.974 36.0663 51.2772 36.2105 51.5939 36.3624C51.8349 36.5077 52.079 36.8001 52.201 37.0927L52.2004 37.0929L52.2047 37.0999C52.3862 37.3902 52.4489 37.7566 52.4489 38.206C52.4489 38.8807 52.3237 39.3928 51.96 39.7563Z" fill="white" stroke="white" stroke-width="0.1"/>
<path d="M54.1402 40.849V40.9034L54.1945 40.8988L55.0757 40.8233L55.1214 40.8194V40.7735V38.4827H55.8897H55.8908H55.8919H55.893H55.8941H55.8952H55.8963H55.8974H55.8985H55.8996H55.9007H55.9018H55.9029H55.904H55.905H55.9061H55.9072H55.9083H55.9094H55.9105H55.9115H55.9126H55.9137H55.9148H55.9158H55.9169H55.918H55.919H55.9201H55.9212H55.9222H55.9233H55.9244H55.9254H55.9265H55.9275H55.9286H55.9296H55.9307H55.9318H55.9328H55.9338H55.9349H55.9359H55.937H55.938H55.9391H55.9401H55.9411H55.9422H55.9432H55.9443H55.9453H55.9463H55.9473H55.9484H55.9494H55.9504H55.9514H55.9525H55.9535H55.9545H55.9555H55.9565H55.9576H55.9586H55.9596H55.9606H55.9616H55.9626H55.9636H55.9646H55.9656H55.9666H55.9676H55.9686H55.9696H55.9706H55.9716H55.9726H55.9736H55.9746H55.9756H55.9766H55.9776H55.9785H55.9795H55.9805H55.9815H55.9825H55.9834H55.9844H55.9854H55.9864H55.9873H55.9883H55.9893H55.9902H55.9912H55.9922H55.9931H55.9941H55.9951H55.996H55.997H55.9979H55.9989H55.9998H56.0008H56.0017H56.0027H56.0036H56.0046H56.0055H56.0065H56.0074H56.0084H56.0093H56.0102H56.0112H56.0121H56.013H56.014H56.0149H56.0158H56.0167H56.0177H56.0186H56.0195H56.0204H56.0214H56.0223H56.0232H56.0241H56.025H56.0259H56.0269H56.0278H56.0287H56.0296H56.0305H56.0314H56.0323H56.0332H56.0341H56.035H56.0359H56.0368H56.0377H56.0386H56.0395H56.0403H56.0412H56.0421H56.043H56.0439H56.0448H56.0457H56.0465H56.0474H56.0483H56.0492H56.05H56.0509H56.0518H56.0527H56.0535H56.0544H56.0553H56.0561H56.057H56.0578H56.0587H56.0596H56.0604H56.0613H56.0621H56.063H56.0638H56.0647H56.0655H56.0664H56.0672H56.0681H56.0689H56.0697H56.0706H56.0714H56.0723H56.0731H56.0739H56.0748H56.0756H56.0764H56.0772H56.0781H56.0789H56.0797H56.0805H56.0814H56.0822H56.083H56.0838H56.0846H56.0854H56.0862H56.0871H56.0879H56.0887H56.0895H56.0903H56.0911H56.0919H56.0927H56.0935H56.0943H56.0951H56.0959H56.0967H56.0975H56.0983H56.099H56.0998H56.1006H56.1014H56.1022H56.103H56.1037H56.1045H56.1053H56.1061H56.1069H56.1076H56.1084H56.1092H56.1099H56.1107H56.1115H56.1122H56.113H56.1138H56.1145H56.1153H56.116H56.1168H56.1175H56.1183H56.119H56.1198H56.1205H56.1213H56.122H56.1228H56.1235H56.1243H56.125H56.1257H56.1265H56.1272H56.1279H56.1287H56.1294H56.1301H56.1309H56.1316H56.1323H56.133H56.1338H56.1345H56.1352H56.1359H56.1366H56.1374H56.1381H56.1388H56.1395H56.1402H56.1409H56.1416H56.1423H56.143H56.1437H56.1444H56.1451H56.1458H56.1465H56.1472H56.1479H56.1486H56.1493H56.15H56.1507H56.1514H56.152H56.1527H56.1534H56.1541H56.1548H56.1555H56.1561H56.1568H56.1575H56.1581H56.1588H56.1595H56.1602H56.1608H56.1615H56.1622H56.1628H56.1635H56.1641H56.1648H56.1654H56.1661H56.1668H56.1674H56.1681H56.1687H56.1694H56.17H56.1706H56.1713H56.1719H56.1726H56.1732H56.1738H56.1745H56.1751H56.1758H56.1764H56.177H56.1776H56.1783H56.1789H56.1795H56.1801H56.1808H56.1814H56.182H56.1826H56.1832H56.1839H56.1845H56.1851H56.1857H56.1863H56.1869H56.1875H56.1881H56.1887H56.1893H56.1899H56.1905H56.1911H56.1917H56.1923H56.1929H56.1935H56.1941H56.1947H56.1953H56.1958H56.1964H56.197H56.1976H56.1982H56.1987H56.1993H56.1999H56.2005H56.201H56.2016H56.2022H56.2028H56.2033H56.2039H56.2044H56.205H56.2056H56.2061H56.2067H56.2072H56.2078H56.2084H56.2089H56.2095H56.21H56.2106H56.2111H56.2117H56.2122H56.2127H56.2133H56.2138H56.2144H56.2149H56.2154H56.216H56.2165H56.217H56.2176H56.2181H56.2186H56.2191H56.2197H56.2202H56.2207H56.2212H56.2217H56.2223H56.2228H56.2233H56.2238H56.2243H56.2248H56.2253H56.2258H56.2263H56.2268H56.2273H56.2278H56.2283H56.2288H56.2293H56.2298H56.2303H56.2308H56.2313H56.2318H56.2323H56.2328H56.2333H56.2337H56.2342H56.2347H56.2352H56.2357H56.2361H56.2366H56.2371H56.2376H56.238H56.2385H56.239H56.2394H56.2399H56.2404H56.2408H56.2413H56.2417H56.2422H56.2426H56.2431H56.2436H56.244H56.2445H56.2449H56.2454H56.2458H56.2462H56.2467H56.2471H56.2476H56.248H56.2484H56.2489H56.2493H56.2497H56.2502H56.2506H56.251H56.2515H56.2519H56.2523H56.2527H56.2532H56.2536H56.254H56.2544H56.2548H56.2552H56.2557H56.2561H56.2565H56.2569H56.2573H56.2577H56.2581H56.2585H56.2589H56.2593H56.2597H56.2601H56.2605H56.2609H56.2613H56.2617H56.2621H56.2625H56.2628H56.2632H56.2636H56.264H56.2644H56.2648H56.2651H56.2655H56.2659H56.2663H56.2666H56.267H56.2674C56.3186 38.4827 56.3569 38.4975 56.399 38.5228C56.4195 38.5351 56.4401 38.5493 56.4639 38.5659C56.4656 38.567 56.4673 38.5682 56.4691 38.5694C56.4947 38.5872 56.5234 38.6068 56.5564 38.6266C56.6724 38.6962 56.7915 38.8375 56.9184 38.9897C56.9824 39.1043 57.0617 39.2183 57.1471 39.3393C57.1542 39.3495 57.1614 39.3597 57.1687 39.3699C57.2492 39.484 57.335 39.6055 57.4208 39.7426C57.4208 39.7427 57.4209 39.7428 57.4209 39.7429L58.1131 40.875L58.1277 40.899H58.1557H59.0369H59.1297L59.0787 40.8215L58.1356 39.3884C58.0064 39.1568 57.7513 38.8507 57.5575 38.6957L57.5578 38.6954L57.552 38.6919L57.5515 38.6916C57.4712 38.6435 57.3899 38.5947 57.2917 38.5457C57.7093 38.4942 58.0296 38.2925 58.2521 38.0924L58.2525 38.0928L58.2571 38.0872C58.5151 37.7777 58.6463 37.4647 58.6463 37.0736C58.6463 36.759 58.5157 36.4481 58.3883 36.2188L58.3883 36.2187L58.3869 36.2165C58.1933 35.9068 57.9955 35.7464 57.7295 35.6666C57.4732 35.5898 57.0907 35.5135 56.5821 35.5135H54.1902H54.1402V35.5635V40.849ZM56.5191 37.8542H55.0585V36.293H56.708C57.0815 36.293 57.3823 36.3681 57.558 36.5086C57.7304 36.6465 57.791 36.8554 57.791 37.0736C57.791 37.2249 57.7899 37.3588 57.6767 37.4946C57.5578 37.6373 57.4398 37.7087 57.2559 37.7823C57.0781 37.8534 56.8377 37.8542 56.5191 37.8542Z" fill="white" stroke="white" stroke-width="0.1"/>
<path d="M59.627 40.849V40.9042L59.682 40.8987L60.4373 40.8232L60.4823 40.8187V40.7735V38.9829L61.3063 38.2063L63.2243 40.8781L63.2392 40.899H63.2649H64.209H64.3094L64.249 40.8189L61.8842 37.6835L64.1173 35.6L64.21 35.5135H64.0831H63.076H63.0557L63.0411 35.5277L60.4194 38.0875V35.5635V35.5135H60.3694H59.677H59.627V35.5635V40.849Z" fill="white" stroke="white" stroke-width="0.1"/>
<path d="M64.7105 40.849V40.8946L64.7559 40.8988L65.5742 40.9743L65.6288 40.9793V40.9245V38.7848H66.9636C67.7238 38.7848 68.2433 38.6331 68.5718 38.3178C68.8985 38.0043 69.0278 37.6124 69.0278 37.1491C69.0278 36.8388 68.9628 36.6039 68.8327 36.3698C68.7039 36.138 68.5739 35.9818 68.3796 35.8265L68.3738 35.8218L68.3669 35.8191C68.1761 35.7428 67.9228 35.6668 67.6724 35.5917C67.5716 35.5518 67.4563 35.5326 67.3212 35.523C67.1856 35.5135 67.0268 35.5135 66.8392 35.5135H66.8377H64.7605H64.7105V35.5635V40.849ZM66.9006 38.0807H65.5658V36.293H66.9006C67.0859 36.293 67.2246 36.3115 67.3328 36.3301C67.36 36.3347 67.3852 36.3394 67.4091 36.3438L67.4143 36.3448C67.4361 36.3488 67.4569 36.3527 67.4764 36.356C67.5143 36.3625 67.5499 36.3675 67.583 36.3684C67.7605 36.4401 67.8762 36.5109 67.9922 36.649C68.115 36.8704 68.1725 37.012 68.1725 37.2246C68.1725 37.5111 68.0537 37.7234 67.8765 37.8651C67.7907 37.9338 67.6576 37.9882 67.4879 38.0252C67.3192 38.062 67.1183 38.0807 66.9006 38.0807Z" fill="white" stroke="white" stroke-width="0.1"/>
<path d="M69.7576 40.849V40.899H69.8076H73.2066H73.2566V40.849V40.2449V40.1949H73.2066H70.55V35.5635V35.5135H70.5H69.8076H69.7576V35.5635V40.849Z" fill="white" stroke="white" stroke-width="0.1"/>
<path d="M73.4117 40.8307L73.3849 40.899H73.4583H74.2765H74.3118L74.3236 40.8658L74.8783 39.3133H77.0122L77.6291 40.8674L77.6416 40.899H77.6756H78.4938H78.5689L78.54 40.8297L76.3369 35.5442L76.3241 35.5135H76.2908H75.5354H75.5014L75.4889 35.5452L73.4117 40.8307ZM76.7838 38.6848H75.1028L75.645 37.1672L75.6452 37.1667C75.7457 36.9256 75.8476 36.6811 75.9171 36.3966C75.9886 36.6597 76.0979 36.9672 76.2444 37.3189L76.7838 38.6848Z" fill="white" stroke="white" stroke-width="0.1"/>
<path d="M83.0307 38.9878L82.9846 38.9777L82.9719 39.0232C82.8477 39.4704 82.6648 39.7557 82.369 39.8976L82.3625 39.9007L82.3572 39.9055C82.1147 40.1237 81.749 40.2702 81.3835 40.2702C81.0149 40.2702 80.7705 40.1971 80.461 40.0486C80.1635 39.9059 79.981 39.6187 79.8568 39.3211C79.733 38.9495 79.6711 38.5777 79.6711 38.1305C79.6711 37.8341 79.7331 37.4633 79.856 37.1682L79.8569 37.1685L79.8588 37.1592C79.8881 37.019 79.9615 36.8942 80.0607 36.7751C80.1598 36.6563 80.2821 36.546 80.4078 36.4329C80.7109 36.2154 81.0139 36.1419 81.4465 36.1419C81.7538 36.1419 82.0593 36.2157 82.302 36.3612C82.5388 36.5033 82.7224 36.7919 82.8468 37.1648L82.861 37.2074L82.9049 37.1978L83.5972 37.0468L83.6489 37.0355L83.6348 36.9845C83.506 36.5211 83.2481 36.1347 82.8625 35.8263L82.8628 35.8259L82.857 35.8224C82.4722 35.5917 82.0228 35.4378 81.4465 35.4378C80.9403 35.4378 80.491 35.5133 80.1034 35.7442C79.6483 35.9022 79.327 36.2911 79.1357 36.6735C78.9431 37.0587 78.8157 37.595 78.8157 38.1305C78.8157 38.6677 78.9438 39.1274 79.1343 39.5844L79.1342 39.5845L79.1357 39.5875C79.326 39.9679 79.5831 40.3558 79.973 40.5896C80.3588 40.821 80.8713 40.9743 81.4465 40.9743C82.0216 40.9743 82.537 40.821 82.9254 40.5103C83.3094 40.2033 83.6325 39.8164 83.7614 39.1978L83.7715 39.1493L83.7231 39.1388L83.0307 38.9878Z" fill="white" stroke="white" stroke-width="0.1"/>
<path d="M84.6102 40.849V40.899H84.6602H88.7516H88.8016V40.849V40.2449V40.1949H88.7516H85.4655V38.4827H88.4369H88.4869V38.4327V37.7532V37.7032H88.4369H85.4655V36.2175H88.6257H88.6757V36.1675V35.5635V35.5135H88.6257H84.6602H84.6102V35.5635V40.849Z" fill="white" stroke="white" stroke-width="0.1"/>
<path d="M91.5751 39.1379L91.5306 39.1428V39.1876C91.5306 39.5778 91.6611 39.889 91.8529 40.1957L91.8525 40.196L91.8569 40.2012C92.049 40.4317 92.3062 40.6635 92.629 40.8184L92.6289 40.8185L92.6321 40.8197C93.0161 40.9733 93.4001 41.0498 93.9095 41.0498C94.357 41.0498 94.6792 40.9729 95.0012 40.8184C95.3258 40.6626 95.5206 40.429 95.7084 40.2037L95.7104 40.2012L95.7107 40.2015L95.7144 40.1957C95.9078 39.8864 95.9738 39.6507 95.9738 39.3386C95.9738 39.0236 95.8424 38.7873 95.7176 38.5627L95.7157 38.5593C95.5812 38.3174 95.3153 38.1606 95.0012 38.01L95.0013 38.0098L94.9982 38.0086C94.8993 37.9691 94.7375 37.9304 94.5345 37.8836C94.5123 37.8785 94.4895 37.8732 94.4662 37.8679C94.2748 37.8239 94.0482 37.7718 93.7965 37.7047C93.7054 37.6804 93.6196 37.6582 93.5392 37.6373C93.3677 37.5929 93.2206 37.5548 93.0983 37.5165C93.0089 37.4885 92.935 37.4611 92.8764 37.4321C92.8175 37.403 92.7772 37.3737 92.752 37.3435L92.7465 37.3369L92.7393 37.3326C92.6355 37.2703 92.5747 37.1416 92.5747 36.9224C92.5747 36.8591 92.6018 36.7736 92.6545 36.6834C92.7066 36.594 92.7813 36.5044 92.8707 36.4329C93.0459 36.2928 93.3462 36.2174 93.7836 36.2174C94.2211 36.2174 94.5214 36.2928 94.6966 36.4329C94.8713 36.5727 94.9942 36.8601 95.0565 37.1592L95.0658 37.2036L95.1109 37.1987L95.8033 37.1231L95.8479 37.1183V37.0734C95.8479 36.7672 95.7846 36.4532 95.5875 36.2145C95.4523 35.9749 95.1876 35.8191 94.8753 35.6692C94.5528 35.5145 94.1675 35.4378 93.7836 35.4378L93.7781 35.4378C93.4046 35.4378 93.0799 35.4378 92.7549 35.5937C92.434 35.7477 92.2393 35.9031 92.0457 36.1353C91.8478 36.3728 91.7823 36.6115 91.7823 36.9224C91.7823 37.1586 91.8481 37.3934 91.9775 37.6263C92.1096 37.8641 92.3073 38.0207 92.562 38.1734L92.5611 38.1748L92.5733 38.1784C92.6783 38.2099 92.7941 38.2414 92.929 38.278C92.9569 38.2856 92.9856 38.2934 93.0151 38.3015C93.1881 38.3486 93.3922 38.4051 93.6434 38.4805L93.6432 38.4809L93.6503 38.482C93.9014 38.5197 94.1044 38.5572 94.2598 38.5944C94.4167 38.6321 94.5203 38.6685 94.5762 38.702L94.5754 38.7033L94.5876 38.707C94.8297 38.7796 94.9461 38.8499 95.0623 38.9874C95.125 39.138 95.1814 39.2772 95.1814 39.4142C95.1814 39.5655 95.1803 39.6993 95.0671 39.8352C95.0394 39.8684 94.9802 39.9222 94.9032 39.9776C94.8273 40.0323 94.7372 40.0862 94.6483 40.122C94.3959 40.1977 94.152 40.2702 93.9095 40.2702C93.603 40.2702 93.3577 40.1969 93.1056 40.1213C92.8669 40.0498 92.687 39.907 92.5661 39.7633C92.444 39.5431 92.3834 39.3968 92.3219 39.1019L92.3126 39.0575L92.2675 39.0624L91.5751 39.1379Z" fill="white" stroke="white" stroke-width="0.1"/>
<path d="M100.744 35.8224L100.744 35.8224L100.742 35.8209C100.297 35.5922 99.8481 35.4378 99.3339 35.4378C98.568 35.4378 97.925 35.6679 97.4106 36.207C96.8943 36.6724 96.6402 37.3672 96.6402 38.2816C96.6402 38.7397 96.7039 39.2042 97.0265 39.6688C97.2797 40.0484 97.5993 40.433 97.9863 40.6651L97.9863 40.6652L97.9892 40.6667C98.4339 40.8954 98.8825 41.0498 99.3968 41.0498C99.907 41.0498 100.293 40.973 100.742 40.7422L100.742 40.7423L100.744 40.7407C101.125 40.5122 101.514 40.2032 101.709 39.7354C101.899 39.2784 102.028 38.8187 102.028 38.2816C102.028 37.7444 101.899 37.2847 101.709 36.8277L101.709 36.8276L101.707 36.8226C101.45 36.3615 101.129 36.0532 100.744 35.8224ZM100.557 39.7563L100.557 39.7562L100.554 39.7597C100.252 40.1222 99.8281 40.2702 99.2709 40.2702C98.7795 40.2702 98.3528 40.1237 97.986 39.7579C97.6806 39.3906 97.4955 38.8744 97.4955 38.2816C97.4955 37.5289 97.6217 36.9428 97.9844 36.5803C98.3515 36.2133 98.7788 36.0663 99.2709 36.0663C99.5714 36.0663 99.8746 36.2105 100.191 36.3624C100.432 36.5077 100.676 36.8001 100.798 37.0927L100.798 37.0929L100.802 37.0999C100.984 37.3902 101.046 37.7566 101.046 38.206C101.046 38.8807 100.921 39.3928 100.557 39.7563Z" fill="white" stroke="white" stroke-width="0.1"/>
<path d="M102.743 40.849V40.899H102.793H106.192H106.242V40.849V40.2449V40.1949H106.192H103.535V35.5635V35.5135H103.485H102.793H102.743V35.5635V40.849Z" fill="white" stroke="white" stroke-width="0.1"/>
<path d="M110.594 35.5135H110.546L110.544 35.5613L110.418 38.5061L110.418 38.5061V38.5082C110.418 38.8472 110.403 39.1262 110.356 39.3475C110.31 39.5689 110.235 39.727 110.12 39.8302C109.879 40.0471 109.514 40.1949 109.021 40.1949C108.894 40.1949 108.756 40.1948 108.626 40.1765C108.496 40.1582 108.381 40.1222 108.296 40.0548C108.105 39.9015 107.931 39.7602 107.873 39.552L107.873 39.5519L107.871 39.5461C107.842 39.4766 107.811 39.3496 107.788 39.1809C107.764 39.0134 107.749 38.8081 107.749 38.5838V35.5635V35.5135H107.699H107.006H106.956V35.5635V38.6593C106.956 39.2653 107.019 39.7263 107.149 40.0376C107.279 40.3489 107.538 40.6613 107.866 40.8185C108.19 40.9741 108.639 41.05 109.146 41.05C109.65 41.05 110.102 40.9752 110.43 40.7421C110.822 40.583 111.017 40.2678 111.144 39.9621C111.274 39.6511 111.337 39.1903 111.337 38.6593V35.5635V35.5135H111.287H110.594Z" fill="white" stroke="white" stroke-width="0.1"/>
<path d="M113.818 40.849V40.899H113.868H114.56H114.61V40.849V36.2175H116.385H116.435V36.1675V35.5635V35.5135H116.385H112.042H111.992V35.5635V36.1675V36.2175H112.042H113.818V40.849Z" fill="white" stroke="white" stroke-width="0.1"/>
<path d="M117.219 40.849V40.899H117.269H117.962H118.012V40.849V35.5635V35.5135H117.962H117.269H117.219V35.5635V40.849Z" fill="white" stroke="white" stroke-width="0.1"/>
<path d="M123.085 35.8224L123.085 35.8224L123.082 35.8209C122.638 35.5922 122.189 35.4378 121.675 35.4378C120.909 35.4378 120.266 35.6679 119.751 36.207C119.235 36.6724 118.981 37.3672 118.981 38.2816C118.981 38.7443 119.11 39.2056 119.365 39.665L119.365 39.665L119.367 39.6684C119.62 40.0481 119.94 40.4329 120.327 40.6651L120.327 40.6652L120.33 40.6667C120.775 40.8954 121.223 41.0498 121.738 41.0498C122.248 41.0498 122.634 40.973 123.082 40.7422L123.082 40.7423L123.085 40.7407C123.47 40.5099 123.791 40.2016 124.047 39.7405L124.048 39.7406L124.05 39.7354C124.24 39.2784 124.368 38.8187 124.368 38.2816C124.368 37.7444 124.24 37.2847 124.05 36.8277L124.05 36.8276L124.047 36.8226C123.791 36.3615 123.47 36.0532 123.085 35.8224ZM122.898 39.7563L122.898 39.7562L122.895 39.7597C122.593 40.1222 122.169 40.2702 121.612 40.2702C121.12 40.2702 120.694 40.1237 120.327 39.7579C120.021 39.3906 119.836 38.8744 119.836 38.2816C119.836 37.5348 120.023 36.9443 120.327 36.5786C120.694 36.2129 121.12 36.0663 121.612 36.0663C121.912 36.0663 122.215 36.2105 122.532 36.3624C122.773 36.5077 123.017 36.8001 123.139 37.0927L123.139 37.0929L123.143 37.0999C123.324 37.3902 123.387 37.7566 123.387 38.206C123.387 38.8807 123.262 39.3928 122.898 39.7563Z" fill="white" stroke="white" stroke-width="0.1"/>
<path d="M125.142 40.849V40.899H125.192H125.884H125.934V40.849V36.8581L128.675 40.8771L128.69 40.899H128.717H129.472H129.522V40.849V35.5635V35.5135H129.472H128.78H128.73V35.5635V39.5543L125.988 35.5353L125.973 35.5135H125.947H125.192H125.142V35.5635V40.849Z" fill="white" stroke="white" stroke-width="0.1"/>
<path d="M52.3644 13.4402C52.3644 20.8399 46.1328 26.8805 38.4535 26.8805C30.7743 26.8805 24.5427 20.8399 24.5427 13.4402C24.5427 6.04056 30.7743 0 38.4535 0C46.1958 0 52.3644 6.04056 52.3644 13.4402Z" fill="white"/>
<path d="M48.7221 13.3638C48.7221 18.8003 44.1901 23.1797 38.588 23.1797C32.9859 23.1797 28.4539 18.8003 28.4539 13.3638C28.4539 7.92725 32.9859 3.54785 38.588 3.54785C44.1901 3.54785 48.7221 7.92725 48.7221 13.3638Z" fill="white"/>
<mask id="mask0_8649_21192" style="mask-type:luminance" maskUnits="userSpaceOnUse" x="29" y="4" width="19" height="19">
<path d="M38.4723 4.30225C37.5911 4.30225 36.6469 4.45326 35.7657 4.67978C30.7931 6.11441 28.0235 11.2489 29.5342 16.0813C31.0449 20.9138 36.2693 23.632 41.2419 22.1219C46.2146 20.6873 48.9842 15.5528 47.4735 10.7203C46.2146 6.86948 42.5008 4.30225 38.4723 4.30225Z" fill="white"/>
</mask>
<g mask="url(#mask0_8649_21192)">
<path d="M48.9206 4.30225H27.96V23.632H48.9206V4.30225Z" fill="url(#paint0_linear_8649_21192)"/>
</g>
<mask id="mask1_8649_21192" style="mask-type:luminance" maskUnits="userSpaceOnUse" x="29" y="12" width="19" height="10">
<path d="M29.7009 13.2119C29.638 17.9688 33.5406 21.8952 38.5132 21.9707C43.4229 22.0462 47.5144 18.2708 47.5773 13.4384C47.5773 13.3629 47.5773 13.2874 47.5773 13.2119C47.3885 17.8933 43.4229 21.2911 38.5132 21.2156C33.6665 21.1401 29.7639 17.6668 29.7009 12.9854C29.7009 13.0609 29.7009 13.1364 29.7009 13.2119Z" fill="white"/>
</mask>
<g mask="url(#mask1_8649_21192)">
<path d="M47.5182 13.0605H29.6418V22.1214H47.5182V13.0605Z" fill="url(#paint1_linear_8649_21192)"/>
</g>
<mask id="mask2_8649_21192" style="mask-type:luminance" maskUnits="userSpaceOnUse" x="30" y="4" width="15" height="11">
<path d="M35.6944 4.98174C31.9807 6.11434 29.5888 9.05911 30.3441 11.6263C31.1624 14.1936 34.8132 15.3262 38.5899 14.2691C42.3037 13.1365 44.6956 10.1917 43.9402 7.62448C43.3737 5.73681 41.1706 4.6042 38.527 4.6042C37.5828 4.5287 36.6386 4.67971 35.6944 4.98174Z" fill="white"/>
</mask>
<g mask="url(#mask2_8649_21192)">
<path d="M44.7005 4.53027H29.5308V15.3278H44.7005V4.53027Z" fill="url(#paint2_linear_8649_21192)"/>
</g>
<path d="M40.978 6.3419C41.1668 6.49292 41.3557 6.71944 41.2927 6.79494C41.2298 6.94596 40.978 6.87045 40.7262 6.71944C40.4744 6.56842 40.3485 6.3419 40.4744 6.2664C40.5374 6.11538 40.7892 6.19089 40.978 6.3419Z" fill="white"/>
<path d="M40.409 5.81379C40.5349 5.88929 40.5978 5.9648 40.5349 5.9648C40.4719 5.9648 40.3461 5.9648 40.2202 5.8893C40.0943 5.81379 40.0313 5.73828 40.0943 5.73828C40.1572 5.73828 40.2831 5.81379 40.409 5.81379Z" fill="white"/>
<mask id="mask3_8649_21192" style="mask-type:luminance" maskUnits="userSpaceOnUse" x="29" y="5" width="19" height="17">
<path d="M41.5491 17.5925C41.612 17.517 41.612 17.4415 41.612 17.366C42.4303 17.366 43.2486 17.4415 44.0669 17.5925C43.6263 17.7435 43.1856 17.97 42.745 18.121C42.6191 18.0455 42.4932 17.97 42.3674 17.97C42.3044 17.97 42.2415 17.97 42.2415 17.97C41.9897 17.8945 41.8009 17.7435 41.5491 17.5925ZM44.6334 17.5925C45.074 17.366 45.4517 17.1394 45.8293 16.9129C45.9552 17.0639 46.0811 17.1394 46.207 17.1394L46.2699 17.2149C46.0811 17.2149 46.0182 17.4415 46.207 17.668C46.2699 17.7435 46.2699 17.819 46.3329 17.8945C45.8293 17.7435 45.1999 17.668 44.6334 17.5925ZM36.4505 17.668C37.2688 17.0639 37.8983 16.5354 38.5277 15.9313C38.5907 15.9313 38.6536 16.0068 38.7166 16.0068H38.8424C39.2831 16.3844 39.8496 16.7619 40.4161 17.1394C40.4161 17.2149 40.4161 17.2149 40.4161 17.2904C39.0942 17.366 37.7724 17.4415 36.4505 17.668ZM45.8923 16.3089C45.4517 15.6293 45.1369 14.9497 44.8222 14.2702H44.8852C45.3887 14.6477 45.9552 15.0252 46.5217 15.5538C46.5217 15.6293 46.5217 15.7048 46.5847 15.7803C46.5847 15.8558 46.6476 15.9313 46.7106 16.0068C46.5217 16.1578 46.3329 16.3844 46.1441 16.5354C46.0182 16.3844 45.9552 16.3089 45.8923 16.3089ZM32.2962 16.6109C32.7368 15.8558 33.0515 15.0252 33.2403 14.2702H33.3033C33.5551 14.2702 33.7439 14.0436 33.8069 13.7416C34.3734 13.5906 35.0028 13.5151 35.5693 13.3641C35.5693 13.5906 35.6323 13.8171 35.7581 13.9681C34.751 14.7232 33.681 15.5538 32.3591 16.6864L32.2962 16.6109ZM41.9897 13.0621C42.2415 13.0621 42.4932 12.911 42.5562 12.6845C43.1227 13.0621 43.6892 13.4396 44.3187 13.8926C44.3816 14.1192 44.5075 14.2702 44.6963 14.2702C44.9481 14.9497 45.3258 15.6293 45.7664 16.3089C45.7034 16.3844 45.6405 16.4599 45.7034 16.6109V16.6864C45.2628 16.9884 44.7593 17.2904 44.2557 17.517C43.3745 17.366 42.4303 17.2904 41.5491 17.2904C41.4232 17.0639 41.1085 16.9129 40.8567 16.8374C40.7308 16.8374 40.6049 16.8374 40.542 16.9129C39.9755 16.5354 39.4719 16.1578 39.0313 15.7803V15.7048C39.0313 15.6293 39.0313 15.5538 38.9683 15.5538C39.9125 14.6477 40.6049 13.8171 41.4232 12.8355C41.5491 12.911 41.7379 13.0621 41.9897 13.0621ZM36.8282 13.8171C36.9541 13.6661 37.017 13.5151 37.017 13.3641C37.017 13.2886 37.017 13.2131 37.017 13.2131C38.4018 12.9865 39.7866 12.8355 41.2344 12.5335C41.2344 12.609 41.2973 12.609 41.2973 12.6845C40.479 13.6661 39.7237 14.5722 38.8424 15.4783C38.7795 15.4783 38.7166 15.4028 38.6536 15.4028H38.5277C37.8983 14.8742 37.3947 14.3457 36.8282 13.8171ZM42.6821 12.3825V12.2315C42.9968 12.156 43.3115 12.0805 43.6263 12.005C43.6892 12.156 43.878 12.307 44.0669 12.307C44.1928 12.76 44.3187 13.1376 44.4445 13.5906C43.7521 13.1376 43.1856 12.6845 42.6821 12.3825ZM39.7866 11.0234C39.8496 11.0989 39.9125 11.0989 39.9755 11.0989C40.0384 11.0989 40.1013 11.0989 40.1643 11.0234C40.542 11.2499 40.9196 11.4764 41.2973 11.7784C41.2343 11.9295 41.1714 12.0805 41.1714 12.2315C39.9125 12.458 38.7166 12.609 37.4577 12.8355C38.2759 12.2315 39.0313 11.7029 39.7866 11.0234ZM33.5551 13.0621C33.7439 12.2315 33.8698 11.4009 33.8698 10.6458C34.5622 11.5519 35.1287 12.307 35.6952 12.9865C35.6952 13.0621 35.6323 13.0621 35.6323 13.1376C35.0028 13.2131 34.4363 13.3641 33.8069 13.4396C33.8069 13.2886 33.681 13.1376 33.5551 13.0621ZM42.3674 11.5519C42.6821 11.0989 43.0598 10.6458 43.4374 10.1928C43.5004 10.2683 43.5633 10.2683 43.6263 10.2683C43.6263 10.5703 43.6892 10.9479 43.7522 11.2499C43.6263 11.4009 43.5004 11.5519 43.5004 11.7784C43.1856 11.8539 42.8709 11.9295 42.5562 12.005C42.5562 11.7784 42.4932 11.6274 42.3674 11.5519ZM40.3531 10.7969V10.6458C41.3602 9.89077 42.4303 8.98468 43.7522 7.77657C43.6892 8.30512 43.6892 8.83367 43.6892 9.43772C43.5633 9.51323 43.4374 9.66424 43.4374 9.81526C43.4374 9.89077 43.4374 9.89077 43.4374 9.96627C42.9968 10.4948 42.6821 10.9479 42.3044 11.4009C42.1785 11.3254 42.0526 11.3254 41.9267 11.3254C41.7379 11.3254 41.612 11.4009 41.4861 11.5519C41.1085 11.3254 40.7308 11.0989 40.3531 10.7969ZM33.8698 6.49296C36.3246 8.45614 38.0242 9.66425 39.6607 10.7213V10.7969V10.9479C38.7795 11.6274 38.0242 12.2315 37.1429 12.8355C37.017 12.8355 36.9541 12.8355 36.8282 12.911C36.7023 12.6845 36.5135 12.5335 36.2617 12.5335C36.0729 12.5335 35.947 12.609 35.8211 12.6845C35.1916 11.9295 34.5622 11.1744 33.8698 10.1928C33.8698 8.90918 33.7439 7.70107 33.4921 6.49296C33.5551 6.49296 33.618 6.49296 33.681 6.49296C33.8069 6.56846 33.8698 6.56846 33.8698 6.49296ZM32.2332 8.15411C32.2332 8.0786 32.2332 8.00309 32.1703 7.85208C32.1073 7.70107 32.0444 7.62556 31.9814 7.47454C32.2962 7.0215 32.6109 6.64397 32.9886 6.19093C33.1145 6.26643 33.2404 6.41745 33.3662 6.41745C33.618 7.62556 33.7439 8.75816 33.7439 10.0418C33.3033 9.51323 32.7997 8.83367 32.2332 8.15411ZM32.6738 6.26644C32.4221 6.56846 32.1703 6.946 31.9185 7.24802C31.8556 7.17252 31.7926 7.09701 31.7297 7.09701C31.6038 7.24802 31.4149 7.39904 31.2891 7.55005C31.352 7.70106 31.415 7.77657 31.4779 7.92759C30.8484 8.90918 30.219 10.1928 29.2119 11.9295C29.2119 12.0805 29.1489 12.2315 29.1489 12.3825C30.219 10.4948 30.9743 9.21121 31.6038 8.15411C31.7297 8.22962 31.7926 8.30512 31.9185 8.38063C31.9815 8.38063 32.0444 8.38063 32.1073 8.38063C32.7368 9.1357 33.2403 9.89077 33.7439 10.4948C33.7439 11.3254 33.618 12.2315 33.4292 13.0621C33.1774 13.0621 32.9886 13.2886 32.9256 13.5906C31.7297 13.8926 30.4708 14.2702 29.2119 14.7232C29.2119 14.8742 29.2748 15.0252 29.2748 15.1763C30.5337 14.6477 31.7297 14.2702 32.9256 13.9681C32.9256 14.1192 33.0515 14.1947 33.1145 14.2702C32.8627 15.0252 32.548 15.7803 32.1073 16.6109C31.9185 16.6864 31.6667 16.9129 31.6038 17.1394C31.5408 17.2149 31.5408 17.2904 31.5408 17.366C31.2261 17.668 30.8484 17.97 30.4708 18.272L30.5337 18.3475C30.9114 18.0455 31.2891 17.7435 31.6038 17.4415H31.6667C31.4149 17.8945 31.1002 18.272 30.8484 18.7251L30.9114 18.8006C31.2261 18.3475 31.5408 17.8945 31.8556 17.366C32.0444 17.2904 32.2962 17.0639 32.3591 16.8374V16.7619C33.7439 15.6293 34.8769 14.7987 35.8211 14.0436C35.947 14.1192 36.0729 14.1947 36.1988 14.1192C36.3247 14.1192 36.5135 14.0436 36.5764 13.9681C37.08 14.4967 37.6465 15.0252 38.2759 15.5538V15.6293C38.2759 15.7048 38.2759 15.7803 38.3389 15.7803C37.7724 16.3089 37.08 16.9129 36.2617 17.517C36.1988 17.517 36.1358 17.517 36.0729 17.517C35.884 17.517 35.6323 17.668 35.5693 17.8945C34.1845 18.1965 32.7997 18.7251 31.352 19.3291L31.4149 19.4046C32.8627 18.8006 34.2475 18.3475 35.5693 17.97V18.0455C34.6881 18.7251 33.618 19.4801 32.3591 20.3107L32.4221 20.3862C33.681 19.5557 34.751 18.8006 35.6952 18.121C35.7581 18.121 35.8211 18.121 35.884 18.121C36.1358 18.121 36.3246 17.97 36.3876 17.819C37.7094 17.517 39.0313 17.4415 40.3531 17.366C40.479 17.517 40.7308 17.668 41.0455 17.7435C41.1085 17.7435 41.2343 17.7435 41.2973 17.7435C41.4861 17.8945 41.7379 18.0455 41.9897 18.1965V18.272L42.0526 18.423C40.3531 19.0271 38.213 19.7067 35.1287 20.9903C35.0657 20.9903 34.9399 20.9903 34.814 20.9903C34.6251 20.9903 34.4363 21.1413 34.2475 21.2168C34.0586 21.2168 33.8069 21.2923 33.618 21.2923C33.7439 21.3678 33.8698 21.4433 33.9327 21.4433C33.9957 21.4433 34.0586 21.5188 34.1845 21.5943C34.2475 21.5943 34.3734 21.5943 34.4992 21.5943C34.6881 21.5188 34.9399 21.4433 35.0658 21.3678C37.2688 21.2168 39.6607 21.2923 42.2415 21.7454C42.3674 21.6698 42.4303 21.6698 42.5562 21.5943C39.9125 21.0658 37.5206 20.9903 35.3175 21.0658L35.2546 20.9903C38.3389 19.7067 40.479 19.0271 42.1785 18.4986C42.3044 18.5741 42.4303 18.6496 42.5562 18.6496C42.6191 18.6496 42.6821 18.6496 42.745 18.6496C43.4374 19.0271 44.1298 19.4801 44.9481 20.0087L45.074 19.8577C44.2557 19.4046 43.5633 18.9516 42.9339 18.4986V18.423L42.8709 18.272C43.4374 18.0455 43.941 17.8945 44.4445 17.668C45.1369 17.7435 45.8923 17.8945 46.5847 18.0455C46.7106 17.819 46.8365 17.668 46.8994 17.4415C46.7735 17.366 46.6476 17.2904 46.5217 17.2149H46.4588L46.3958 17.1394C46.5217 17.1394 46.5217 16.9884 46.4588 16.8374C46.3958 16.7619 46.3329 16.6864 46.2699 16.6109C46.4588 16.4599 46.6476 16.3089 46.8364 16.1578C46.9623 16.3089 47.1512 16.4599 47.34 16.5354C47.403 16.3089 47.5288 16.0068 47.5918 15.7803C47.5288 15.7048 47.5288 15.6293 47.4659 15.5538C47.5288 15.4783 47.6547 15.3273 47.7177 15.2518C47.7177 15.1007 47.7806 14.9497 47.7806 14.7987C47.5918 15.0252 47.4659 15.1763 47.2771 15.3273C47.1512 15.1763 47.0253 15.1007 46.8994 15.1007C46.7735 15.1007 46.7106 15.1007 46.6476 15.1763C46.0811 14.7232 45.5146 14.3457 45.0111 13.9681V13.8926C44.9481 13.6661 44.7593 13.4396 44.6334 13.4396H44.5704C44.4445 12.9866 44.3187 12.609 44.1928 12.2315C44.3816 12.156 44.5075 12.005 44.5075 11.7784C45.4517 11.4764 46.4588 11.1744 47.4659 10.7213C47.403 10.5703 47.403 10.4948 47.34 10.3438C46.3958 10.7968 45.4517 11.0989 44.5075 11.4009C44.4445 11.1744 44.2557 11.0234 44.0669 11.0234H43.941C43.878 10.6458 43.878 10.3438 43.8151 10.0418C43.941 9.96627 44.0039 9.81526 44.0669 9.66425C44.0669 9.51323 44.0669 9.43772 44.0039 9.36222C44.5075 8.75816 45.011 8.15411 45.5776 7.39904L45.5146 7.32353C44.8852 8.00309 44.3816 8.68266 43.878 9.28671H43.8151C43.8151 8.68266 43.8151 8.15411 43.878 7.55005C44.1928 7.24802 44.5075 6.946 44.8852 6.64397L44.8222 6.56846C44.5075 6.87049 44.1928 7.09701 43.941 7.32353C44.0039 6.87049 44.0669 6.41745 44.1298 5.96441L44.0039 5.8889C43.941 6.41745 43.8151 6.946 43.8151 7.47454C42.4303 8.68266 41.2973 9.58874 40.2902 10.3438C40.2272 10.2683 40.1643 10.2683 40.1013 10.2683C40.0384 10.2683 39.9755 10.2683 39.9125 10.3438C38.2759 9.28671 36.5764 8.0786 34.0586 6.11542C34.0586 6.03991 34.0586 5.96441 33.9957 5.81339C33.9327 5.66238 33.8698 5.51137 33.7439 5.36035C33.3033 5.81339 32.9886 6.03991 32.6738 6.26644Z" fill="white"/>
</mask>
<g mask="url(#mask3_8649_21192)">
<path d="M47.7177 5.5874H29.1489V21.7459H47.7177V5.5874Z" fill="url(#paint3_radial_8649_21192)"/>
</g>
</g>
<defs>
<linearGradient id="paint0_linear_8649_21192" x1="29.0931" y1="13.9566" x2="47.8333" y2="13.9566" gradientUnits="userSpaceOnUse">
<stop stop-color="#CBE4F5"/>
<stop offset="0.6742" stop-color="#4C9CD6"/>
<stop offset="1" stop-color="#4C9CD6"/>
</linearGradient>
<linearGradient id="paint1_linear_8649_21192" x1="29.7114" y1="17.5462" x2="47.5424" y2="17.5462" gradientUnits="userSpaceOnUse">
<stop stop-color="#CBE4F5"/>
<stop offset="0.3531" stop-color="#7AA7D8"/>
<stop offset="0.6593" stop-color="#3882C4"/>
<stop offset="1" stop-color="#3882C4"/>
</linearGradient>
<linearGradient id="paint2_linear_8649_21192" x1="30.1963" y1="9.95296" x2="44.0537" y2="9.95296" gradientUnits="userSpaceOnUse">
<stop stop-color="#409DD7"/>
<stop offset="1" stop-color="#6BBAE7"/>
</linearGradient>
<radialGradient id="paint3_radial_8649_21192" cx="0" cy="0" r="1" gradientUnits="userSpaceOnUse" gradientTransform="translate(31.669 7.86889) scale(43.5614 42.4002)">
<stop stop-color="white"/>
<stop offset="0.0562" stop-color="white"/>
<stop offset="0.1766" stop-color="#DAF0FC"/>
<stop offset="0.3034" stop-color="#BBE4F9"/>
<stop offset="0.3342" stop-color="#A8D1F0"/>
<stop offset="0.4686" stop-color="#6499D0"/>
<stop offset="0.5646" stop-color="#317DC1"/>
<stop offset="0.6124" stop-color="#1274BB"/>
<stop offset="0.7119" stop-color="#5392CE"/>
<stop offset="0.8764" stop-color="#ACE1F8"/>
<stop offset="1" stop-color="#ACE1F8"/>
</radialGradient>
<clipPath id="clip0_8649_21192">
<rect width="133" height="41" fill="white"/>
</clipPath>
</defs>
</svg>
