<svg width="24" height="24" viewBox="0 0 24 24" fill="none" xmlns="http://www.w3.org/2000/svg">
<path d="M4 17C4 16.4688 4.4375 16 5 16H6.6875C7.09375 15.125 7.96875 14.5 9 14.5C10 14.5 10.875 15.125 11.2812 16H19C19.5312 16 20 16.4688 20 17C20 17.5625 19.5312 18 19 18H11.2812C10.875 18.9062 10 19.5 9 19.5C7.96875 19.5 7.09375 18.9062 6.6875 18H5C4.4375 18 4 17.5625 4 17ZM10 17C10 16.4688 9.53125 16 9 16C8.4375 16 8 16.4688 8 17C8 17.5625 8.4375 18 9 18C9.53125 18 10 17.5625 10 17ZM15 9.5C16 9.5 16.875 10.125 17.2812 11H19C19.5312 11 20 11.4688 20 12C20 12.5625 19.5312 13 19 13H17.2812C16.875 13.9062 16 14.5 15 14.5C13.9688 14.5 13.0938 13.9062 12.6875 13H5C4.4375 13 4 12.5625 4 12C4 11.4688 4.4375 11 5 11H12.6875C13.0938 10.125 13.9688 9.5 15 9.5ZM16 12C16 11.4688 15.5312 11 15 11C14.4375 11 14 11.4688 14 12C14 12.5625 14.4375 13 15 13C15.5312 13 16 12.5625 16 12ZM19 6C19.5312 6 20 6.46875 20 7C20 7.5625 19.5312 8 19 8H12.2812C11.875 8.90625 11 9.5 10 9.5C8.96875 9.5 8.09375 8.90625 7.6875 8H5C4.4375 8 4 7.5625 4 7C4 6.46875 4.4375 6 5 6H7.6875C8.09375 5.125 8.96875 4.5 10 4.5C11 4.5 11.875 5.125 12.2812 6H19ZM9 7C9 7.5625 9.4375 8 10 8C10.5312 8 11 7.5625 11 7C11 6.46875 10.5312 6 10 6C9.4375 6 9 6.46875 9 7Z" fill="#939AB3"/>
</svg>
