<svg width="24" height="24" viewBox="0 0 24 24" fill="none" xmlns="http://www.w3.org/2000/svg">
<path d="M1.7898 1.03227C1.47033 1.13024 1.13311 1.48647 1.03993 1.82935C1.01331 1.92732 1 3.01829 1 4.72822C1.00444 6.29566 1.02219 7.38663 1.03993 7.27976C1.1198 6.879 1.35053 6.5851 1.7055 6.4248C1.86967 6.3491 1.99834 6.33129 2.40655 6.33129H2.90351V5.85037C2.90351 5.58764 2.92569 5.2982 2.94788 5.20914C3.01887 4.95532 3.25404 4.67924 3.52026 4.5412L3.75543 4.41652H11.9995H20.2436L20.4788 4.5412C20.745 4.67924 20.9802 4.95532 21.0512 5.20914C21.0733 5.2982 21.0955 5.58764 21.0955 5.85037V6.33129H21.5969C22.0007 6.33129 22.1294 6.3491 22.2935 6.4248C22.6485 6.5851 22.8792 6.879 22.9591 7.27976C22.9769 7.39109 22.9946 6.74096 22.999 5.65889C23.0035 4.087 22.9946 3.82427 22.928 3.63725C22.8437 3.38788 22.582 3.09844 22.3157 2.96931C22.1427 2.88025 22.0051 2.88025 16.4144 2.85798L10.6906 2.83572L10.4022 2.69768C10.2158 2.60862 9.8431 2.33253 9.35946 1.92286C8.87138 1.51319 8.5031 1.23711 8.31674 1.14805L8.02833 1.01001L4.96675 1.0011C3.2851 0.996646 1.85192 1.01001 1.7898 1.03227Z" fill="#EC9615"/>
<path d="M1.68157 6.29606C1.41091 6.44669 1.25118 6.63369 1.11806 6.97651L1.01601 7.23623L1.0027 14.5238C0.993824 19.4272 1.00714 21.8789 1.0382 22.014C1.11363 22.3464 1.35323 22.6996 1.61502 22.8554L1.84574 23.0009H11.9978H22.1498L22.385 22.8554C22.6512 22.6944 22.8775 22.3568 22.9574 22.014C22.9884 21.8789 23.0017 19.422 22.9929 14.5238L22.9796 7.23623L22.8775 6.97651C22.7444 6.63369 22.5847 6.44669 22.314 6.29606L22.0921 6.17139H11.9978H1.90343L1.68157 6.29606Z" fill="#EC9615"/>
<path d="M3.51431 4.86957L3.51285 4.87318C3.47734 4.96029 3.46582 5.00224 3.45782 5.06637C3.4473 5.1508 3.44336 5.2747 3.44336 5.53109V5.61804H11.995H20.5466V5.53109C20.5466 5.25092 20.5435 5.13471 20.5329 5.05702C20.5259 5.0053 20.5164 4.9707 20.4682 4.85751C20.372 4.64055 20.2256 4.52359 20.1008 4.48401C20.0816 4.48244 20.0524 4.4806 20.0111 4.47865C19.9242 4.47456 19.7983 4.47067 19.6296 4.46709C19.2929 4.45995 18.798 4.45428 18.1289 4.45007C16.7914 4.44164 14.7663 4.43904 11.9378 4.44164C8.56069 4.44164 6.54483 4.44554 5.35288 4.45655C4.7561 4.46206 4.37054 4.46933 4.12534 4.47854C4.00222 4.48316 3.92058 4.48807 3.86804 4.49281C3.85822 4.49369 3.85016 4.49452 3.84368 4.49524C3.72312 4.55285 3.58714 4.68686 3.51431 4.86957ZM20.1197 4.48586C20.1197 4.48586 20.1188 4.48572 20.1166 4.48547L20.1197 4.48586Z" fill="white" stroke="white"/>
</svg>
