<svg width="25" height="25" viewBox="0 0 25 25" fill="none" xmlns="http://www.w3.org/2000/svg">
<path d="M10.0769 22.25V16.9929C10.0769 16.6254 10.4808 16.2504 10.8846 16.2504H14.1154C14.5192 16.2504 14.9231 16.6254 14.9231 17.0004V22.25C14.9231 22.4489 15.0082 22.6397 15.1596 22.7803C15.3111 22.921 15.5166 23 15.7308 23H22.1923C22.4065 23 22.612 22.921 22.7634 22.7803C22.9149 22.6397 23 22.4489 23 22.25V11.7507C23.0002 11.6522 22.9795 11.5545 22.939 11.4634C22.8985 11.3723 22.8391 11.2895 22.7642 11.2198L20.5769 9.19038V4.2512C20.5769 4.0523 20.4918 3.86154 20.3404 3.7209C20.1889 3.58026 19.9834 3.50124 19.7692 3.50124H18.1538C17.9396 3.50124 17.7342 3.58026 17.5827 3.7209C17.4312 3.86154 17.3462 4.0523 17.3462 4.2512V6.19057L13.0718 2.22033C12.9968 2.15049 12.9077 2.09508 12.8096 2.05727C12.7114 2.01946 12.6062 2 12.5 2C12.3938 2 12.2886 2.01946 12.1904 2.05727C12.0923 2.09508 12.0032 2.15049 11.9282 2.22033L2.23585 11.2198C2.16089 11.2895 2.10148 11.3723 2.06101 11.4634C2.02054 11.5545 1.99981 11.6522 2 11.7507V22.25C2 22.4489 2.0851 22.6397 2.23657 22.7803C2.38804 22.921 2.59348 23 2.80769 23H9.26923C9.48344 23 9.68888 22.921 9.84036 22.7803C9.99183 22.6397 10.0769 22.4489 10.0769 22.25Z" fill="#002266"/>
</svg>
