<svg width="25" height="25" viewBox="0 0 25 25" fill="none" xmlns="http://www.w3.org/2000/svg">
<path d="M22.35 11.7495V11.7507V22.25C22.35 22.2603 22.346 22.2809 22.3212 22.304C22.2946 22.3286 22.249 22.35 22.1923 22.35H15.7308C15.674 22.35 15.6284 22.3286 15.6019 22.304C15.577 22.2809 15.5731 22.2603 15.5731 22.25V17.0004C15.5731 16.5839 15.3568 16.2348 15.113 16.0085C14.866 15.7792 14.5123 15.6004 14.1154 15.6004H10.8846C10.488 15.6004 10.1349 15.7789 9.88864 16.0061C9.64652 16.2294 9.42692 16.5767 9.42692 16.9929V22.25C9.42692 22.2603 9.42296 22.2809 9.39808 22.304L9.84036 22.7803L9.39808 22.304C9.37157 22.3286 9.32597 22.35 9.26923 22.35H2.80769C2.75095 22.35 2.70535 22.3286 2.67885 22.304L2.23657 22.7803L2.67884 22.304C2.65397 22.2809 2.65 22.2603 2.65 22.25L2.65 11.7507L2.65 11.7495C2.64999 11.7433 2.65121 11.7359 2.65505 11.7273C2.65895 11.7185 2.66611 11.7073 2.67865 11.6956C2.67867 11.6956 2.6787 11.6955 2.67872 11.6955L12.3704 2.69666L12.371 2.6961C12.3837 2.68428 12.4014 2.67257 12.4241 2.66381C12.4469 2.65503 12.4728 2.65 12.5 2.65C12.5272 2.65 12.5531 2.65503 12.5759 2.66381L12.8096 2.05727L12.5759 2.66381C12.5986 2.67257 12.6163 2.68428 12.629 2.6961L12.6295 2.69657L16.9038 6.66682L17.9962 7.68148V6.19057V4.2512C17.9962 4.2409 18.0001 4.22033 18.025 4.19723L17.5827 3.7209L18.025 4.19723C18.0515 4.17262 18.0971 4.15124 18.1538 4.15124H19.7692C19.826 4.15124 19.8716 4.17262 19.8981 4.19723C19.923 4.22033 19.9269 4.2409 19.9269 4.2512V9.19038V9.47398L20.1348 9.66687L22.3213 11.6955C22.3214 11.6956 22.3214 11.6957 22.3215 11.6958C22.334 11.7074 22.3411 11.7186 22.345 11.7273C22.3488 11.7359 22.35 11.7433 22.35 11.7495Z" stroke="#506285" stroke-width="1.3"/>
</svg>
