<svg width="26" height="26" viewBox="0 0 26 26" fill="none" xmlns="http://www.w3.org/2000/svg">
<path d="M13.6527 1.25105C13.2922 0.916316 12.7078 0.916316 12.3473 1.25105L1.27036 11.5368C1.09725 11.6975 1 11.9155 1 12.1429V24.1429C1 24.6162 1.41328 25 1.92308 25H10.2308C10.7406 25 11.1538 24.6162 11.1538 24.1429V17.2857H14.8462V24.1429C14.8462 24.6162 15.2594 25 15.7692 25H24.0769C24.5867 25 25 24.6162 25 24.1429V12.1429C25 11.9155 24.9027 11.6975 24.7296 11.5368L22.2308 9.21639V3.57143C22.2308 3.09804 21.8175 2.71429 21.3077 2.71429H19.4615C18.9517 2.71429 18.5385 3.09804 18.5385 3.57143V5.78782L13.6527 1.25105ZM2.84615 23.2857V12.4979L13 3.06933L23.1538 12.4979V23.2857H16.6923V16.4286C16.6923 15.9552 16.279 15.5714 15.7692 15.5714H10.2308C9.72097 15.5714 9.30769 15.9552 9.30769 16.4286V23.2857H2.84615Z" fill="#2D3748"/>
</svg>
