<svg width="28" height="22" viewBox="0 0 28 22" fill="none" xmlns="http://www.w3.org/2000/svg">
<rect x="13.7998" y="7.80005" width="14" height="14" rx="2" fill="white"/>
<path d="M25.6506 11.494H21.8416L21.7636 10.5515H25.5791L25.6506 11.494ZM23.0441 18.8V11.143H24.2726V18.8H23.0441ZM15.8616 16.9735C16.217 17.1859 16.5831 17.3527 16.9601 17.474C17.3415 17.591 17.7575 17.6495 18.2081 17.6495C18.5635 17.6495 18.8581 17.604 19.0921 17.513C19.3305 17.422 19.5081 17.2812 19.6251 17.0905C19.7421 16.8999 19.8006 16.655 19.8006 16.356V16.226C19.8006 15.9487 19.74 15.7234 19.6186 15.55C19.4973 15.3724 19.3023 15.2402 19.0336 15.1535C18.7693 15.0669 18.4226 15.017 17.9936 15.004L16.9601 14.9715V14.003L17.9286 13.977C18.3706 13.964 18.7216 13.9142 18.9816 13.8275C19.2416 13.7409 19.428 13.613 19.5406 13.444C19.6576 13.2707 19.7161 13.0497 19.7161 12.781V12.6835C19.7161 12.2762 19.6035 11.9729 19.3781 11.7735C19.1528 11.5699 18.7715 11.468 18.2341 11.468C17.8745 11.468 17.5213 11.5114 17.1746 11.598C16.828 11.6847 16.4878 11.8082 16.1541 11.9685L16.2321 10.8765C16.5095 10.7465 16.8258 10.6425 17.1811 10.5645C17.5408 10.4865 17.9373 10.4475 18.3706 10.4475C18.973 10.4475 19.4626 10.5299 19.8396 10.6945C20.221 10.8549 20.5005 11.0889 20.6781 11.3965C20.8558 11.6999 20.9446 12.0682 20.9446 12.5015V12.586C20.9446 12.9154 20.8818 13.2035 20.7561 13.4505C20.6348 13.6975 20.4355 13.8947 20.1581 14.042C19.8851 14.185 19.5233 14.2674 19.0726 14.289L19.0856 14.7115C19.5666 14.7852 19.9501 14.9022 20.2361 15.0625C20.5221 15.2229 20.728 15.4244 20.8536 15.667C20.9793 15.9097 21.0421 16.1914 21.0421 16.512V16.5965C21.0421 17.2899 20.8211 17.812 20.3791 18.163C19.9371 18.514 19.2546 18.6895 18.3316 18.6895C17.8376 18.6895 17.3913 18.6419 16.9926 18.5465C16.594 18.4469 16.2408 18.3104 15.9331 18.137L15.8616 16.9735ZM19.0076 14.185L19.9306 14.0745L19.9436 14.185C20.1343 14.1634 20.3098 14.146 20.4701 14.133C20.6305 14.12 20.8038 14.1114 20.9901 14.107C21.1765 14.0984 21.4061 14.094 21.6791 14.094H23.4861V15.1015H21.7051C21.4321 15.1015 21.1981 15.0929 21.0031 15.0755C20.8125 15.0582 20.6348 15.0322 20.4701 14.9975C20.3098 14.9629 20.1365 14.9195 19.9501 14.8675L19.9176 15.017L19.0076 14.8155V14.185Z" fill="#002266"/>
<path d="M5.98655 11.7161H4.66705L7.21505 3.40906H9.23655L11.7846 11.7161H10.4651L8.30705 4.28006H8.14455L5.98655 11.7161ZM10.1076 9.39556H6.33105V8.31656H10.1076V9.39556Z" fill="white"/>
<path d="M13.4651 0.800049H2.99199C1.78128 0.800049 0.799805 1.69897 0.799805 2.80784V12.4C0.799805 13.5089 1.78128 14.4078 2.99199 14.4078H13.4651C14.6758 14.4078 15.6573 13.5089 15.6573 12.4V2.80784C15.6573 1.69897 14.6758 0.800049 13.4651 0.800049Z" stroke="white" stroke-width="1.6" stroke-linecap="round" stroke-linejoin="round"/>
</svg>
