<svg width="19" height="19" viewBox="0 0 19 19" fill="none" xmlns="http://www.w3.org/2000/svg">
<path d="M8.58066 7.6274C8.58066 8.10434 8.99228 8.49101 9.5 8.49101C10.0077 8.49101 10.4193 8.10434 10.4193 7.6274H8.58066ZM10.4193 0.863609C10.4193 0.386655 10.0077 0 9.5 0C8.99228 0 8.58066 0.386655 8.58066 0.863609H10.4193ZM6.20363 3.92834C6.66573 3.73069 6.8697 3.21856 6.65935 2.78448C6.44889 2.35041 5.90372 2.15877 5.44163 2.35643L6.20363 3.92834ZM0.919466 10.2597L0 10.2552L0.000184118 10.2697L0.919466 10.2597ZM9.5 18.1358L9.51054 17.2722C9.50356 17.2722 9.49645 17.2722 9.48946 17.2722L9.5 18.1358ZM18.0805 10.2597L19 10.2697L18.9999 10.2552L18.0805 10.2597ZM13.5583 2.35643C13.0962 2.15877 12.5511 2.35041 12.3406 2.78448C12.1303 3.21856 12.3343 3.73069 12.7964 3.92834L13.5583 2.35643ZM10.4193 7.6274V0.863609H8.58066V7.6274H10.4193ZM5.44163 2.35643C2.14333 3.76731 0.0189875 6.85074 0 10.2552L1.8388 10.2642C1.85403 7.5334 3.55793 5.06006 6.20363 3.92834L5.44163 2.35643ZM0.000184118 10.2697C0.0606156 15.1472 4.31831 19.0554 9.51054 18.9994L9.48946 17.2722C5.3125 17.3173 1.88736 14.1733 1.83875 10.2497L0.000184118 10.2697ZM9.48946 18.9994C14.6817 19.0554 18.9397 15.1472 19 10.2697L17.1613 10.2497C17.1126 14.1733 13.6875 17.3173 9.51054 17.2722L9.48946 18.9994ZM18.9999 10.2552C18.9809 6.85074 16.8567 3.76731 13.5583 2.35643L12.7964 3.92834C15.442 5.06006 17.146 7.5334 17.1612 10.2642L18.9999 10.2552Z" fill="white"/>
</svg>
