<svg width="113" height="61" viewBox="0 0 113 61" fill="none" xmlns="http://www.w3.org/2000/svg">
<path fill-rule="evenodd" clip-rule="evenodd" d="M5.75435 30.8179L5.31445 30.3706C5.71593 29.9594 6.19459 29.6329 6.72256 29.41C7.25053 29.1871 7.81724 29.0723 8.38967 29.0723C8.9621 29.0723 9.52881 29.1871 10.0568 29.41C10.5847 29.6329 11.0634 29.9594 11.4649 30.3706L11.0169 30.8016C10.6736 30.4524 10.265 30.1753 9.81475 29.9861C9.3645 29.7969 8.88152 29.6995 8.3937 29.6995C7.90589 29.6995 7.42291 29.7969 6.97266 29.9861C6.52241 30.1753 6.11382 30.4524 5.77049 30.8016M7.3202 32.2982L6.91663 31.8915C7.11264 31.6879 7.34723 31.5259 7.60651 31.4154C7.86578 31.3048 8.14445 31.2478 8.42599 31.2478C8.70753 31.2478 8.9862 31.3048 9.24547 31.4154C9.50474 31.5259 9.73934 31.6879 9.93535 31.8915L9.53177 32.2982C9.24013 32.0084 8.84766 31.845 8.4381 31.8427C8.23485 31.8412 8.03335 31.8807 7.84551 31.9589C7.65767 32.0371 7.48728 32.1525 7.34442 32.2982M8.4381 33.388L7.65517 32.6154C7.86757 32.4125 8.1457 32.2941 8.4381 32.2819C8.72877 32.2911 9.00537 32.4101 9.21295 32.6154L8.4381 33.388ZM8.4381 30.8016C8.77903 30.7988 9.11691 30.8666 9.43072 31.0009C9.74453 31.1353 10.0276 31.3332 10.2622 31.5824L10.7506 31.0904C10.4495 30.7768 10.0889 30.5274 9.69027 30.3571C9.29161 30.1867 8.86303 30.099 8.43002 30.099C7.99702 30.099 7.56844 30.1867 7.16978 30.3571C6.77113 30.5274 6.41054 30.7768 6.10949 31.0904L6.59377 31.5865C6.83143 31.3364 7.11721 31.1379 7.43363 31.0029C7.75005 30.868 8.09047 30.7995 8.43406 30.8016" fill="#0E6EB6"/>
<path fill-rule="evenodd" clip-rule="evenodd" d="M5.48436 33.9238H11.2353C7.11076 44.4362 6.3924 50.5972 10.5774 50.4345C1.39619 50.9794 2.58672 41.9921 5.4884 33.9238" fill="#0E6EB6"/>
<path fill-rule="evenodd" clip-rule="evenodd" d="M10.7715 17.7994C16.0179 9.18616 24.5252 8.30776 30.5868 11.4432C37.3103 14.9283 39.3847 22.9925 37.7099 30.0929C36.2368 36.5508 32.0155 42.4515 26.5592 46.2457C23.2193 48.5287 19.4247 50.0485 15.4408 50.6987C18.4952 49.6948 21.2285 47.8881 23.3589 45.4649C24.6811 44.0182 25.826 42.4166 26.7691 40.6947C29.8644 36.4898 31.2971 32.3702 31.398 28.7834C31.5998 23.9726 29.5214 19.1983 25.1346 16.9901C21.3168 15.034 16.1753 15.1357 10.7715 17.8034" fill="#F26329"/>
<path fill-rule="evenodd" clip-rule="evenodd" d="M6.80815 27.5159C11.086 18.9759 19.896 18.3781 25.0859 22.0747C27.1313 23.5373 28.5685 25.7096 29.1216 28.1747C29.8279 31.3142 29.3113 34.5675 28.1409 37.6704C27.0644 40.5573 25.4401 43.2052 23.3586 45.4662C20.4045 48.7561 16.175 51.2652 11.655 51.2164C9.84862 51.2261 8.07332 50.7426 6.51758 49.8175C8.65247 50.8545 11.9739 50.4885 14.0038 49.6711C17.3615 48.2844 20.0574 45.4092 21.7403 42.2291C23.8187 38.3332 25.4572 32.0624 22.1439 28.4716C19.1373 25.1369 13.1402 23.9982 6.80815 27.5118" fill="#09A14A"/>
<path d="M107.297 32.4075L108.314 29.4673C108.193 29.4673 108.064 29.4673 107.955 29.4673C107.639 29.4544 107.323 29.5074 107.028 29.6228C106.733 29.7383 106.465 29.9137 106.24 30.1383C105.789 30.586 105.483 31.1598 105.36 31.7853C105.271 32.0688 105.281 32.3744 105.388 32.6515C105.44 32.7538 105.52 32.8385 105.619 32.895C105.718 32.9514 105.832 32.9771 105.945 32.9687C106.443 32.9371 106.917 32.7478 107.301 32.4278M110.53 28.1619L108.399 34.1887H106.668L106.865 33.6153C106.345 34.0341 105.707 34.2774 105.041 34.3107C104.778 34.3222 104.516 34.2585 104.287 34.1268C104.058 33.9951 103.87 33.8009 103.746 33.5665C103.451 32.9768 103.392 32.2956 103.58 31.6633C103.798 30.5919 104.395 29.6367 105.259 28.9752C106.217 28.2457 107.397 27.8761 108.597 27.9301C109.24 27.9232 109.882 27.9928 110.51 28.1375M103.455 28.0602L101.296 34.1887H99.5648L101.732 28.0602H103.455ZM102.277 26.3441C102.327 26.0873 102.461 25.8549 102.658 25.6844C102.855 25.5139 103.103 25.4154 103.362 25.4047C103.473 25.4017 103.583 25.4247 103.683 25.472C103.783 25.5193 103.871 25.5896 103.94 25.6772C104.01 25.7712 104.057 25.8804 104.078 25.9962C104.099 26.112 104.093 26.2311 104.061 26.3441C104.002 26.6108 103.861 26.8516 103.657 27.0314C103.459 27.1962 103.211 27.2881 102.955 27.2916C102.847 27.2945 102.739 27.2726 102.641 27.2275C102.542 27.1824 102.455 27.1154 102.386 27.0314C102.32 26.9314 102.276 26.818 102.259 26.6991C102.241 26.5803 102.25 26.459 102.285 26.3441M96.8568 32.745L97.9667 29.5608C97.8239 29.5375 97.6794 29.5267 97.5348 29.5283C96.9666 29.5163 96.4118 29.7031 95.9649 30.057C95.5399 30.3846 95.2427 30.8525 95.1255 31.3786C95.0741 31.5563 95.0644 31.7437 95.0974 31.9258C95.1303 32.1079 95.2049 32.2798 95.3152 32.4278C95.4487 32.5704 95.6123 32.681 95.7939 32.7514C95.9756 32.8218 96.1705 32.8502 96.3645 32.8345C96.5305 32.8251 96.6952 32.8006 96.8568 32.7613M101.296 24.9655L98.1039 34.1196C97.4314 34.2453 96.7497 34.3146 96.0658 34.327C95.0287 34.327 94.2659 34.0586 93.7736 33.5136C93.2812 32.9687 93.144 32.2652 93.3417 31.3705C93.5458 30.4062 94.0766 29.5435 94.843 28.9305C95.6342 28.2646 96.6374 27.9094 97.668 27.9301C97.9462 27.9347 98.2238 27.9564 98.4994 27.9952L99.5608 24.9492L101.296 24.9655ZM89.4796 28.0602L89.2172 28.7475C89.8406 28.2632 90.5945 27.9797 91.3804 27.9342C91.582 27.915 91.785 27.9515 91.9677 28.0396C92.1504 28.1277 92.3059 28.2641 92.4176 28.4344C92.5244 28.6481 92.5883 28.8809 92.6056 29.1196C92.6229 29.3583 92.5933 29.598 92.5184 29.8252C92.4805 30.0112 92.4306 30.1946 92.3691 30.3742L91.0414 34.1928H89.3181L90.5975 30.5328C90.6448 30.4302 90.68 30.3223 90.7024 30.2115C90.8234 29.6056 90.7024 29.3087 90.3513 29.3087C90.0002 29.3087 89.3908 29.6137 88.7007 30.2522L87.3164 34.2009H85.5851L87.7482 28.0602H89.4796ZM87.0178 24.9655L83.7892 34.205H81.9247L85.1533 24.9655H87.0178ZM79.8342 24.9655L76.6056 34.205H74.8905L78.119 24.9655H79.8342ZM72.1663 32.4238L73.1753 29.4836C73.0542 29.4836 72.9251 29.4836 72.8161 29.4836C72.501 29.4708 72.1867 29.5239 71.893 29.6393C71.5992 29.7548 71.3323 29.9302 71.109 30.1546C70.6622 30.5916 70.3534 31.1518 70.2211 31.765C70.1276 32.0484 70.1405 32.3566 70.2574 32.6312C70.3071 32.7332 70.3859 32.8179 70.4837 32.8744C70.5815 32.931 70.6939 32.9567 70.8063 32.9484C71.3041 32.9136 71.7791 32.7247 72.1663 32.4075M75.3949 28.1416L73.2762 34.1887H71.5529L71.7547 33.6153C71.2334 34.0303 70.5978 34.2731 69.9346 34.3107C69.6664 34.3269 69.3992 34.2659 69.1641 34.1349C68.929 34.0038 68.7357 33.8081 68.6068 33.5706C68.3181 32.9791 68.2591 32.3004 68.4414 31.6674C68.658 30.5954 69.2548 29.6398 70.1202 28.9793C71.0809 28.2495 72.264 27.88 73.4658 27.9342C74.108 27.9279 74.7487 27.9975 75.3747 28.1416M67.8764 26.7508L67.3679 28.0602H68.6391L68.1185 29.4022H66.8392L66.0805 31.403C66.014 31.554 65.9653 31.7124 65.9352 31.8748C65.8101 32.4238 65.9352 32.6881 66.2863 32.6881C66.6627 32.6334 67.0255 32.5079 67.3558 32.318L67.0047 33.9447C66.5192 34.1959 65.9843 34.3348 65.4388 34.3514C65.206 34.3679 64.9729 34.3248 64.7612 34.2259C64.5494 34.1271 64.366 33.9758 64.2281 33.7861C64.1038 33.563 64.0251 33.3171 63.9967 33.0628C63.9683 32.8086 63.9907 32.5512 64.0626 32.3058C64.1151 32.131 64.1676 31.952 64.2281 31.7731L65.1523 29.4266H63.9819L64.4904 28.0846H65.6688L66.1572 26.7874L67.8764 26.7508ZM63.6591 28.0602L61.504 34.1887H59.7807L61.9277 28.0602H63.6591ZM62.4685 26.3441C62.5282 26.0838 62.6698 25.8499 62.8721 25.6772C63.067 25.5085 63.3135 25.4123 63.5703 25.4047C63.6816 25.401 63.7921 25.4238 63.8931 25.4711C63.994 25.5184 64.0825 25.589 64.1514 25.6772C64.2166 25.7737 64.261 25.8829 64.2819 25.9977C64.3027 26.1126 64.2995 26.2306 64.2725 26.3441C64.208 26.6082 64.0676 26.8472 63.8689 27.0314C63.6706 27.1926 63.4254 27.284 63.1707 27.2916C63.0622 27.2971 62.9539 27.2763 62.8549 27.231C62.7559 27.1857 62.6691 27.1173 62.6017 27.0314C62.5322 26.933 62.4852 26.8203 62.4643 26.7015C62.4433 26.5826 62.4489 26.4605 62.4806 26.3441M56.8508 35.547C56.9073 35.2623 56.6773 35.0508 56.1688 34.941L55.4464 34.7662C55.2088 34.7806 54.9761 34.8399 54.7603 34.941C54.6306 34.9764 54.5126 35.0459 54.4183 35.1424C54.324 35.2388 54.2568 35.3588 54.2236 35.49C54.1348 35.9211 54.5141 36.1285 55.3697 36.1285C55.7284 36.1435 56.0872 36.0982 56.4311 35.9943C56.5313 35.9619 56.6214 35.9035 56.6922 35.825C56.763 35.7465 56.8121 35.6506 56.8347 35.547M56.762 31.4803C57.3876 31.4803 57.7911 31.033 57.9727 30.1546C58.0049 30.049 58.0154 29.938 58.0036 29.8282C57.9918 29.7184 57.958 29.6122 57.9041 29.5161C57.8404 29.4348 57.7576 29.3706 57.6632 29.3295C57.5689 29.2883 57.4658 29.2714 57.3633 29.2802C56.7338 29.2802 56.3181 29.7235 56.1082 30.6304C55.9912 31.1875 56.197 31.4803 56.7459 31.4803M60.939 28.0602L60.4789 29.4022H59.5547C59.6181 29.7272 59.6181 30.0614 59.5547 30.3864C59.4142 31.0194 59.0588 31.5832 58.5498 31.9805C58.0042 32.4128 57.3268 32.6413 56.6329 32.6271C56.3626 32.6196 56.0923 32.6387 55.8257 32.684C55.7533 32.6911 55.6852 32.722 55.6319 32.7719C55.5786 32.8219 55.5432 32.8882 55.5311 32.9606C55.511 33.0338 55.5311 33.0988 55.6441 33.1802C56.0404 33.2986 56.4452 33.3856 56.8548 33.4404C57.5692 33.5665 58.0656 33.7698 58.2996 34.0992C58.4285 34.2711 58.5159 34.4707 58.5552 34.6824C58.5944 34.8941 58.5843 35.1121 58.5256 35.3192C58.2391 36.645 57.0929 37.32 55.0912 37.32C54.4074 37.3715 53.7229 37.2307 53.1137 36.9134C52.9215 36.8057 52.7706 36.6363 52.685 36.4321C52.5994 36.228 52.5841 36.0008 52.6416 35.7869C52.7747 35.2013 53.3478 34.7255 54.3729 34.4164C54.1636 34.32 53.994 34.1534 53.8931 33.9449C53.7923 33.7365 53.7664 33.4992 53.82 33.2737C53.9451 32.7044 54.4173 32.3262 55.2365 32.1432C54.96 31.9519 54.7506 31.6774 54.6382 31.3589C54.5259 31.0404 54.5163 30.6943 54.611 30.3701C54.7703 29.7155 55.155 29.139 55.6966 28.7434C56.2667 28.2831 56.9801 28.041 57.7104 28.0602H60.939ZM54.0783 28.0602L51.9232 34.205H50.1999L52.3268 28.0602H54.0783ZM52.8676 26.3441C52.9278 26.084 53.0693 25.8502 53.2711 25.6772C53.4644 25.511 53.7074 25.4151 53.9612 25.4047C54.0722 25.4029 54.1822 25.4265 54.2829 25.4737C54.3835 25.5209 54.4722 25.5904 54.5424 25.6772C54.6103 25.7723 54.6555 25.8821 54.6744 25.9978C54.6933 26.1134 54.6854 26.232 54.6513 26.3441C54.5877 26.6086 54.4472 26.8479 54.2478 27.0314C54.0487 27.1968 53.7995 27.2887 53.5415 27.2916C53.4338 27.2954 53.3266 27.2739 53.2285 27.2287C53.1304 27.1836 53.0442 27.116 52.9765 27.0314C52.9115 26.9309 52.8672 26.8183 52.8464 26.7002C52.8256 26.5821 52.8287 26.461 52.8555 26.3441M45.2562 26.5027L43.1253 32.6596H44.8607C45.2926 32.6672 45.7216 32.5881 46.1228 32.4268C46.524 32.2655 46.8893 32.0253 47.1974 31.7202C47.8541 31.1065 48.3018 30.2996 48.4767 29.4144C48.5806 29.0584 48.6045 28.6835 48.5466 28.317C48.4886 27.9504 48.3503 27.6016 48.1417 27.2957C47.9 27.0115 47.5945 26.7895 47.2506 26.648C46.9067 26.5066 46.5343 26.4498 46.1642 26.4824L45.2562 26.5027ZM43.9527 24.9655H46.8503C48.3112 24.9655 49.3363 25.3722 49.9296 26.218C50.5228 27.0639 50.6681 28.1416 50.3856 29.4714C50.1185 30.7786 49.4457 31.9664 48.4646 32.863C47.6034 33.7187 46.4454 34.2029 45.236 34.2131H40.7402L43.9527 24.9655Z" fill="white"/>
<path fill-rule="evenodd" clip-rule="evenodd" d="M41.4662 40.5037H42.463C42.7901 40.5144 43.1109 40.411 43.371 40.2109C43.4784 40.1163 43.563 39.9983 43.6183 39.8658C43.6735 39.7333 43.698 39.5898 43.6898 39.4464C43.6978 39.3011 43.6733 39.1559 43.6181 39.0215C43.5629 38.887 43.4785 38.7668 43.371 38.6696C43.1127 38.4672 42.7896 38.3673 42.463 38.389H41.4662V40.5037ZM41.4662 41.0608V43.4114H40.877V37.8197H42.3338C42.8491 37.7925 43.3592 37.9352 43.7867 38.2264C43.965 38.3729 44.1064 38.5598 44.1997 38.7717C44.293 38.9837 44.3353 39.2148 44.3235 39.4464C44.3325 39.6728 44.2886 39.8982 44.1954 40.1045C44.1021 40.3107 43.9622 40.492 43.7867 40.6338C43.3647 40.9389 42.8526 41.0909 42.3338 41.0649L41.4662 41.0608Z" fill="white"/>
<path fill-rule="evenodd" clip-rule="evenodd" d="M46.6979 42.87C46.8786 42.8743 47.0582 42.8403 47.225 42.7702C47.3919 42.7002 47.5423 42.5956 47.6665 42.4633C47.7979 42.3264 47.9012 42.1646 47.9704 41.9874C48.0397 41.8101 48.0735 41.6208 48.07 41.4304C48.0755 41.2403 48.0425 41.051 47.9731 40.8742C47.9038 40.6973 47.7994 40.5365 47.6665 40.4015C47.5458 40.2625 47.3969 40.1513 47.2297 40.0755C47.0626 39.9997 46.8812 39.9611 46.6979 39.9623C46.5124 39.9582 46.3283 39.9954 46.1588 40.0714C45.9893 40.1473 45.8385 40.26 45.7172 40.4015C45.5848 40.5369 45.4809 40.6978 45.4115 40.8746C45.3422 41.0513 45.3089 41.2404 45.3137 41.4304C45.3075 41.8149 45.4526 42.1862 45.7172 42.4633C45.8422 42.598 45.9944 42.7041 46.1636 42.7742C46.3328 42.8444 46.5151 42.8771 46.6979 42.87ZM46.6979 43.423C46.4381 43.4339 46.179 43.3891 45.9376 43.2916C45.6962 43.1942 45.4781 43.0463 45.2975 42.8578C44.9413 42.4602 44.7441 41.9436 44.7441 41.408C44.7441 40.8724 44.9413 40.3558 45.2975 39.9582C45.6709 39.5894 46.173 39.3828 46.6959 39.3828C47.2188 39.3828 47.7208 39.5894 48.0943 39.9582C48.4463 40.3579 48.6407 40.8737 48.6407 41.408C48.6407 41.9424 48.4463 42.4582 48.0943 42.8578C47.9148 43.0455 47.698 43.1929 47.458 43.2903C47.2181 43.3877 46.9604 43.433 46.7019 43.423" fill="white"/>
<path fill-rule="evenodd" clip-rule="evenodd" d="M50.9624 42.4113L52.0521 39.3125H52.4113L53.5211 42.4072L54.6834 39.3694H55.2241L53.6664 43.4158H53.3112L52.2216 40.382L51.1198 43.4158H50.7687L49.2109 39.3694H49.8082L50.9624 42.4113Z" fill="white"/>
<path fill-rule="evenodd" clip-rule="evenodd" d="M58.5187 40.9193C58.4833 40.7064 58.3943 40.5062 58.2604 40.3378C58.1573 40.2114 58.0261 40.1114 57.8775 40.0456C57.7288 39.9799 57.5669 39.9504 57.4048 39.9596C57.2492 39.9651 57.0966 40.0042 56.9573 40.0744C56.8181 40.1446 56.6954 40.2441 56.5977 40.3662C56.4739 40.5345 56.3797 40.723 56.3192 40.9234L58.5187 40.9193ZM56.2385 41.3992C56.2374 41.5887 56.2743 41.7765 56.3471 41.9512C56.42 42.1259 56.5272 42.284 56.6623 42.4158C56.7933 42.5554 56.9518 42.6658 57.1276 42.7401C57.3034 42.8143 57.4927 42.8507 57.6833 42.8469C57.9174 42.8476 58.1497 42.8062 58.3694 42.7249C58.6025 42.6309 58.8202 42.5021 59.0151 42.3426L59.1442 42.2328V42.8591H59.1039C58.9033 43.0337 58.6738 43.1714 58.4259 43.2658C58.0564 43.3981 57.6584 43.4279 57.2736 43.352C56.8888 43.2762 56.5313 43.0975 56.2385 42.8347C56.0519 42.6456 55.9059 42.4199 55.8094 42.1715C55.7129 41.9232 55.668 41.6575 55.6776 41.391C55.6562 40.8623 55.8285 40.3441 56.1618 39.9352C56.3135 39.7515 56.5045 39.6049 56.7205 39.5063C56.9365 39.4077 57.1718 39.3597 57.4089 39.3658C57.6493 39.3522 57.8897 39.393 58.1125 39.4852C58.3352 39.5774 58.5347 39.7186 58.6963 39.8986C58.9986 40.2922 59.1556 40.7796 59.1402 41.2772V41.3585L56.2385 41.3992Z" fill="white"/>
<path fill-rule="evenodd" clip-rule="evenodd" d="M60.9399 39.9586C61.0162 39.8156 61.1201 39.6893 61.2456 39.5872C61.371 39.4852 61.5154 39.4094 61.6702 39.3643C61.8251 39.3192 61.9874 39.3058 62.1475 39.3247C62.3076 39.3437 62.4623 39.3947 62.6026 39.4747C62.6108 39.4751 62.6187 39.4781 62.6252 39.4832C62.6317 39.4883 62.6365 39.4952 62.6389 39.5032V40.1376C62.6026 40.1172 62.6389 40.1376 62.5905 40.1376C61.6784 39.6252 61.1215 40.3612 60.9399 40.8614V43.4072H60.3789V39.3405H60.9399V39.9586Z" fill="white"/>
<path fill-rule="evenodd" clip-rule="evenodd" d="M66.7387 38.405H64.959V37.8926H69.1158V38.405H67.336V43.3541H66.7387V38.405Z" fill="white"/>
<path fill-rule="evenodd" clip-rule="evenodd" d="M76.4292 38.4917V40.277H78.6811V40.8057H76.4292V42.8024H79.1008V43.3351H75.8359V37.959H78.9959V38.4917H76.4292Z" fill="white"/>
<path fill-rule="evenodd" clip-rule="evenodd" d="M80.7134 39.882C80.8479 39.7134 81.018 39.5773 81.2115 39.4838C81.4049 39.3902 81.6167 39.3414 81.8313 39.3411C82.0272 39.3337 82.2224 39.3683 82.4039 39.4427C82.5855 39.517 82.7494 39.6293 82.8847 39.7722C82.9733 39.8686 83.0505 39.975 83.1147 40.0894L83.1954 39.9552C83.3335 39.767 83.5127 39.6134 83.7191 39.5062C83.9256 39.399 84.1537 39.3411 84.3859 39.337C84.5819 39.3291 84.7772 39.3635 84.9588 39.4379C85.1405 39.5122 85.3043 39.6248 85.4393 39.7681C85.5764 39.9152 85.6828 40.0885 85.7522 40.2778C85.8215 40.4672 85.8523 40.6686 85.8428 40.8702V43.2776H85.2576V40.8946C85.2707 40.6278 85.1794 40.3664 85.0034 40.1666C84.9194 40.0718 84.815 39.9976 84.6982 39.9497C84.5814 39.9018 84.4553 39.8814 84.3294 39.8901C84.1635 39.8981 84.0014 39.9431 83.8549 40.0218C83.7083 40.1006 83.5809 40.2112 83.4819 40.3456C83.4071 40.4211 83.342 40.5058 83.2882 40.5977V43.2776H82.703V40.8946C82.7104 40.7623 82.6917 40.63 82.6481 40.505C82.6044 40.3801 82.5367 40.2651 82.4488 40.1666C82.3639 40.073 82.2593 39.9996 82.1428 39.9518C82.0262 39.9039 81.9005 39.8829 81.7748 39.8901C81.6079 39.8986 81.4448 39.9437 81.297 40.0224C81.1492 40.1011 81.0203 40.2114 80.9193 40.3456C80.8481 40.4253 80.782 40.5095 80.7215 40.5977V43.2776H80.1484V39.4143H80.7134V39.882Z" fill="white"/>
<path d="M87.0957 39.423H87.6809V39.911C87.8034 39.7036 87.9973 39.5487 88.2257 39.4759C88.5718 39.3361 88.9506 39.3 89.3165 39.3722C89.6824 39.4444 90.0197 39.6216 90.288 39.8826C90.6262 40.2941 90.8129 40.8107 90.8166 41.345C90.8202 41.8793 90.6406 42.3984 90.3081 42.8146C89.6059 43.5873 88.5768 43.4124 87.7374 42.9651L87.6809 42.9285V44.8114H87.0957V39.423ZM89.4526 40.1266C88.9683 39.8094 88.262 39.8826 87.693 40.6512V42.225C88.2862 42.8675 89.053 42.9285 89.5615 42.5544C89.7398 42.4017 89.881 42.21 89.9744 41.9938C90.0677 41.7777 90.1108 41.5429 90.1003 41.3075C90.0898 41.072 90.026 40.842 89.9137 40.6352C89.8014 40.4284 89.6437 40.2503 89.4526 40.1144" fill="white"/>
<path d="M50.6086 35.1152H39.5508V35.7578H50.6086V35.1152Z" fill="white"/>
<path d="M109.819 35.1152H59.5098V35.7578H109.819V35.1152Z" fill="white"/>
<path fill-rule="evenodd" clip-rule="evenodd" d="M70.7053 42.7657C70.8862 42.7718 71.0664 42.7387 71.2335 42.6685C71.4006 42.5983 71.5508 42.4928 71.6739 42.359C71.9371 42.0827 72.0821 41.7132 72.0774 41.3302C72.0803 40.945 71.9358 40.5736 71.6739 40.2932C71.553 40.1565 71.4032 40.049 71.2356 39.9786C71.0679 39.9082 70.8867 39.8767 70.7053 39.8865C70.523 39.8795 70.3414 39.9122 70.1729 39.9823C70.0043 40.0525 69.8528 40.1585 69.7286 40.2932C69.4634 40.5715 69.3183 40.9443 69.3251 41.3302C69.321 41.5201 69.3546 41.7089 69.4239 41.8856C69.4932 42.0623 69.5968 42.2232 69.7286 42.359C69.8544 42.4916 70.0062 42.5962 70.1744 42.6662C70.3426 42.7362 70.5234 42.7701 70.7053 42.7657ZM70.7053 43.3228C70.4458 43.3314 70.1873 43.2855 69.9462 43.1882C69.7052 43.0909 69.4868 42.9443 69.3049 42.7576C69.1217 42.5664 68.9783 42.3401 68.8834 42.0921C68.7884 41.8442 68.7437 41.5795 68.752 41.3139C68.7399 41.0453 68.7827 40.7772 68.8778 40.526C68.9729 40.2748 69.1183 40.0461 69.3049 39.854C69.4855 39.665 69.7035 39.5163 69.9447 39.4175C70.1859 39.3187 70.445 39.2721 70.7053 39.2806C70.9645 39.2709 71.2227 39.317 71.4628 39.4159C71.7029 39.5148 71.9193 39.6641 72.0976 39.854C72.2829 40.0441 72.428 40.27 72.5244 40.518C72.6208 40.7661 72.6665 41.0313 72.6586 41.2976C72.6649 41.5637 72.6185 41.8284 72.5222 42.0763C72.4259 42.3242 72.2815 42.5502 72.0976 42.7413C71.9166 42.927 71.6996 43.073 71.46 43.1703C71.2204 43.2676 70.9635 43.314 70.7053 43.3066" fill="white"/>
<path fill-rule="evenodd" clip-rule="evenodd" d="M93.4867 42.7658C93.6674 42.7698 93.8469 42.7357 94.0137 42.6657C94.1805 42.5957 94.3309 42.4912 94.4553 42.3591C94.7193 42.0833 94.8643 41.7134 94.8588 41.3303C94.8626 40.945 94.7179 40.5733 94.4553 40.2933C94.3307 40.1597 94.1804 40.0532 94.0134 39.9805C93.8465 39.9077 93.6666 39.8702 93.4847 39.8702C93.3028 39.8702 93.1229 39.9077 92.9559 39.9805C92.789 40.0532 92.6386 40.1597 92.5141 40.2933C92.3817 40.4303 92.2777 40.5926 92.2084 40.7707C92.1391 40.9488 92.1058 41.139 92.1105 41.3303C92.1051 41.5204 92.138 41.7096 92.2074 41.8865C92.2768 42.0633 92.3811 42.2241 92.5141 42.3591C92.6385 42.4912 92.7889 42.5957 92.9557 42.6657C93.1225 42.7357 93.302 42.7698 93.4827 42.7658M93.4827 43.3229C93.2229 43.3332 92.9639 43.2882 92.7226 43.1908C92.4813 43.0934 92.2631 42.9458 92.0823 42.7577C91.8981 42.5671 91.7541 42.341 91.6591 42.0929C91.5641 41.8447 91.52 41.5798 91.5294 41.314C91.5171 41.0447 91.5606 40.7758 91.6572 40.5245C91.7538 40.2731 91.9013 40.0448 92.0903 39.8541C92.27 39.6638 92.4878 39.5143 92.7293 39.4154C92.9707 39.3165 93.2303 39.2706 93.4907 39.2807C93.7509 39.2724 94.01 39.3192 94.2512 39.4179C94.4924 39.5167 94.7104 39.6653 94.8911 39.8541C95.072 40.0466 95.2132 40.2732 95.3067 40.521C95.4002 40.7688 95.4441 41.0328 95.4359 41.2977C95.4498 41.8324 95.2541 42.3511 94.8911 42.7414C94.7091 42.9279 94.4907 43.0744 94.2496 43.1717C94.0086 43.269 93.7502 43.3149 93.4907 43.3067" fill="white"/>
<path fill-rule="evenodd" clip-rule="evenodd" d="M97.7572 42.4608L98.8509 39.3457H99.2182L100.312 42.4526L101.474 39.4108H102.031L100.473 43.449H100.118L99.0204 40.4234L97.9267 43.449H97.5676L96.0098 39.4108H96.599L97.7572 42.4608Z" fill="white"/>
<path fill-rule="evenodd" clip-rule="evenodd" d="M105.333 40.9179C105.299 40.7045 105.21 40.5038 105.074 40.3364C104.972 40.2102 104.842 40.1101 104.694 40.0443C104.546 39.9786 104.384 39.9491 104.223 39.9582C104.067 39.9606 103.913 39.9985 103.773 40.0689C103.634 40.1392 103.511 40.2404 103.416 40.3649C103.287 40.5301 103.192 40.7195 103.137 40.922L105.333 40.9179ZM103.057 41.3978C103.055 41.5874 103.092 41.7753 103.165 41.9501C103.237 42.1249 103.345 42.2829 103.48 42.4145C103.61 42.553 103.768 42.6629 103.942 42.7371C104.116 42.8113 104.304 42.8482 104.493 42.8455C104.727 42.8453 104.959 42.804 105.179 42.7235C105.412 42.6342 105.628 42.5048 105.817 42.3413L105.958 42.2315V42.8577H105.93C105.725 43.0321 105.491 43.1697 105.24 43.2644C104.869 43.3974 104.47 43.4276 104.084 43.3517C103.697 43.2759 103.339 43.0969 103.045 42.8333C102.86 42.6429 102.716 42.4169 102.62 42.1688C102.524 41.9207 102.479 41.6557 102.488 41.3897C102.47 40.8621 102.64 40.3457 102.968 39.9338C103.128 39.7574 103.323 39.616 103.54 39.5182C103.756 39.4204 103.991 39.3684 104.228 39.3654C104.466 39.3623 104.701 39.4083 104.92 39.5005C105.139 39.5926 105.337 39.729 105.502 39.9013C105.808 40.2937 105.968 40.7813 105.954 41.2799V41.3612L103.057 41.3978Z" fill="white"/>
<path fill-rule="evenodd" clip-rule="evenodd" d="M107.754 39.9186C107.832 39.7782 107.936 39.6546 108.061 39.5548C108.186 39.4551 108.329 39.3811 108.483 39.3373C108.636 39.2935 108.796 39.2806 108.955 39.2994C109.113 39.3182 109.266 39.3683 109.405 39.4469C109.405 39.4469 109.433 39.4469 109.449 39.4672V40.126C109.401 40.0732 109.449 40.126 109.401 40.0976C108.485 39.5811 107.932 40.3253 107.75 40.8133V43.359H107.189V39.3086H107.754V39.9186Z" fill="white"/>
</svg>
