<svg width="26" height="26" viewBox="0 0 26 26" fill="none" xmlns="http://www.w3.org/2000/svg">
<path d="M8 9C8 8.73478 8.10535 8.48043 8.29289 8.29289C8.48043 8.10535 8.73478 8 9 8H17C17.2652 8 17.5196 8.10535 17.7071 8.29289C17.8946 8.48043 18 8.73478 18 9C18 9.26521 17.8946 9.51957 17.7071 9.7071C17.5196 9.89464 17.2652 10 17 10H9C8.73478 10 8.48043 9.89464 8.29289 9.7071C8.10535 9.51957 8 9.26521 8 9ZM9 14H17C17.2652 14 17.5196 13.8946 17.7071 13.7071C17.8946 13.5196 18 13.2652 18 13C18 12.7348 17.8946 12.4804 17.7071 12.2929C17.5196 12.1054 17.2652 12 17 12H9C8.73478 12 8.48043 12.1054 8.29289 12.2929C8.10535 12.4804 8 12.7348 8 13C8 13.2652 8.10535 13.5196 8.29289 13.7071C8.48043 13.8946 8.73478 14 9 14ZM13 16H9C8.73478 16 8.48043 16.1053 8.29289 16.2929C8.10535 16.4804 8 16.7348 8 17C8 17.2652 8.10535 17.5196 8.29289 17.7071C8.48043 17.8946 8.73478 18 9 18H13C13.2652 18 13.5196 17.8946 13.7071 17.7071C13.8946 17.5196 14 17.2652 14 17C14 16.7348 13.8946 16.4804 13.7071 16.2929C13.5196 16.1053 13.2652 16 13 16ZM25 3V16.5862C25.0008 16.849 24.9494 17.1093 24.8488 17.352C24.7481 17.5947 24.6003 17.8149 24.4137 18L18 24.4137C17.8149 24.6003 17.5947 24.7481 17.352 24.8488C17.1093 24.9494 16.849 25.0008 16.5862 25H3C2.46957 25 1.96086 24.7893 1.58579 24.4142C1.21071 24.0391 1 23.5304 1 23V3C1 2.46957 1.21071 1.96086 1.58579 1.58579C1.96086 1.21071 2.46957 1 3 1H23C23.5304 1 24.0391 1.21071 24.4142 1.58579C24.7893 1.96086 25 2.46957 25 3ZM3 23H16V17C16 16.7348 16.1053 16.4804 16.2929 16.2929C16.4804 16.1053 16.7348 16 17 16H23V3H3V23ZM18 18V21.5875L21.5862 18H18Z" fill="#2D3748"/>
</svg>
