<svg width="24" height="24" viewBox="0 0 24 24" fill="none" xmlns="http://www.w3.org/2000/svg">
<g clip-path="url(#clip0_6484_1691)">
<mask id="mask0_6484_1691" style="mask-type:luminance" maskUnits="userSpaceOnUse" x="1" y="-1" width="23" height="25">
<path d="M23.375 -0.583252H1.625V23.5834H23.375V-0.583252Z" fill="white"/>
</mask>
<g mask="url(#mask0_6484_1691)">
<path d="M28.2083 12.7085H1.625V21.1668H28.2083V12.7085Z" fill="white"/>
<path d="M3.27266 -0.488833C2.61582 -0.285821 2.1204 0.0918681 1.80312 0.639521L1.625 0.951114V11.5029V22.0545L1.80312 22.3661C2.12597 22.9279 2.62695 23.3009 3.30049 23.4945C3.62334 23.5889 3.77363 23.5889 12.563 23.5794L21.4971 23.5653L21.8867 23.4047C22.3988 23.1923 22.7708 22.9792 23.375 22.3751V21.1667L23.295 14.2741L23.3061 6.49843H20.4562C18.8864 6.49843 17.4113 6.47482 17.1887 6.45122C16.042 6.32374 15.1624 5.57781 15.0122 4.60526C14.9843 4.41641 14.9565 3.16531 14.9565 1.83396V-0.583252H9.26767C3.79033 -0.578527 3.5621 -0.578527 3.27266 -0.488833ZM17.8344 9.48217C18.0737 9.59551 18.2407 9.84092 18.2407 10.0865C18.2407 10.332 18.1071 10.535 17.8511 10.6672L17.6562 10.7711H12.4517C7.34727 10.7711 7.2415 10.7711 7.06338 10.6766C6.81289 10.5491 6.6626 10.332 6.6626 10.0912C6.6626 9.74655 6.89639 9.50573 7.30273 9.42078C7.3918 9.40193 9.76309 9.39251 12.563 9.39251C17.2722 9.40193 17.6674 9.40664 17.8344 9.48217ZM17.8344 12.3149C18.0737 12.4282 18.2407 12.6736 18.2407 12.9191C18.2407 13.1647 18.1071 13.3677 17.8511 13.4999L17.6562 13.6037H12.4517C7.34727 13.6037 7.2415 13.6037 7.06338 13.5093C6.81289 13.3818 6.6626 13.1647 6.6626 12.9239C6.6626 12.5792 6.89639 12.3384 7.30273 12.2535C7.3918 12.2346 9.76309 12.2251 12.563 12.2251C17.2722 12.2346 17.6674 12.2393 17.8344 12.3149ZM17.8344 15.1476C18.0737 15.2608 18.2407 15.5063 18.2407 15.7518C18.2407 15.9973 18.1071 16.2004 17.8511 16.3326L17.6562 16.4364H12.4517C7.34727 16.4364 7.2415 16.4364 7.06338 16.342C6.81289 16.2145 6.6626 15.9973 6.6626 15.7566C6.6626 15.4119 6.89639 15.1711 7.30273 15.0862C7.3918 15.0672 9.76309 15.0578 12.563 15.0578C17.2722 15.0672 17.6674 15.0719 17.8344 15.1476ZM14.4945 17.9801C15.0289 18.2304 15.0345 18.9008 14.5002 19.1746C14.3219 19.2643 14.2162 19.2691 10.7818 19.2691C7.34727 19.2691 7.2415 19.2643 7.06338 19.1746C6.81289 19.0472 6.6626 18.83 6.6626 18.5893C6.6626 18.2445 6.89082 18.0038 7.30273 17.9187C7.3918 17.8999 9.01163 17.8858 10.893 17.8905C14.0214 17.8999 14.3332 17.9046 14.4945 17.9801Z" fill="#AD3236"/>
<path d="M16.625 2.19789C16.625 4.53012 16.6306 4.62926 16.7363 4.77562C16.9701 5.09665 16.8922 5.08722 20.0372 5.07304L22.8593 5.05888L19.7421 2.41506L16.625 -0.22876V2.19789Z" fill="#AD3236"/>
<path d="M21.0003 7.875H4.04199V21.8694H21.0003V7.875Z" fill="#AD3236"/>
<path d="M28.2083 12.7085H1.625V21.1668H28.2083V12.7085Z" fill="white"/>
<path d="M6.73049 13.9202C7.50968 13.9202 8.07825 14.0881 8.43619 14.424C8.79413 14.7572 8.97309 15.2171 8.97309 15.8035C8.97309 16.0679 8.93317 16.3211 8.85332 16.5634C8.77348 16.803 8.6427 17.0164 8.46098 17.2036C8.282 17.3909 8.04246 17.5395 7.74235 17.6497C7.44223 17.757 7.0719 17.8108 6.63137 17.8108H6.08207V19.9583H4.80176V13.9202H6.73049ZM6.6644 14.9692H6.08207V16.7617H6.50333C6.74287 16.7617 6.95075 16.73 7.12697 16.6667C7.30319 16.6034 7.43948 16.5042 7.53584 16.3693C7.63221 16.2344 7.6804 16.061 7.6804 15.8489C7.6804 15.5515 7.59779 15.3313 7.43259 15.1881C7.26739 15.0422 7.01133 14.9692 6.6644 14.9692ZM15.1227 16.8814C15.1227 17.5615 14.992 18.1301 14.7304 18.5871C14.4716 19.0414 14.0958 19.3842 13.6029 19.6155C13.11 19.844 12.5167 19.9583 11.8229 19.9583H10.113V13.9202H12.0087C12.642 13.9202 13.1912 14.0331 13.6565 14.2589C14.1219 14.4819 14.4825 14.8137 14.7386 15.2542C14.9948 15.6919 15.1227 16.2344 15.1227 16.8814ZM13.7928 16.9145C13.7928 16.4684 13.7267 16.1023 13.5947 15.8159C13.4653 15.5268 13.2725 15.3134 13.0164 15.1757C12.7631 15.0381 12.4492 14.9692 12.0747 14.9692H11.3933V18.901H11.9426C12.5676 18.901 13.0316 18.7344 13.3344 18.4013C13.6401 18.0681 13.7928 17.5726 13.7928 16.9145ZM17.6338 19.9583H16.3742V13.9202H19.8351V14.9692H17.6338V16.5263H19.6823V17.5711H17.6338V19.9583Z" fill="#AD3236"/>
</g>
</g>
<defs>
<clipPath id="clip0_6484_1691">
<rect width="24" height="24" fill="white"/>
</clipPath>
</defs>
</svg>
