<svg width="18" height="18" viewBox="0 0 18 18" fill="none" xmlns="http://www.w3.org/2000/svg">
<g clip-path="url(#clip0_6484_2022)">
<mask id="mask0_6484_2022" style="mask-type:luminance" maskUnits="userSpaceOnUse" x="0" y="0" width="18" height="18">
<path d="M18 0H0V18H18V0Z" fill="white"/>
</mask>
<g mask="url(#mask0_6484_2022)">
<path d="M9 5.3999V10.0008" stroke="white" stroke-width="0.5"/>
<path d="M9 5.3999V10.0008" stroke="white" stroke-width="0.5"/>
<path d="M8.5498 5.3999V7.6499V8.9999V9.8999" stroke="white" stroke-width="0.5"/>
<path d="M2.7002 9.8999H8.5502H14.4002" stroke="white" stroke-width="0.5"/>
<path d="M2.7002 9.8999H8.5502H14.4002" stroke="white" stroke-width="0.5"/>
<path d="M5.40039 9.44995H8.32539H11.7004" stroke="white" stroke-width="0.5"/>
<path d="M3.375 10.0588V12.3372" stroke="white" stroke-width="1.5"/>
<path d="M14.4004 9.67505V12.6" stroke="white" stroke-width="1.5"/>
<g filter="url(#filter0_d_6484_2022)">
<path d="M5.40636 1.89203L5.40039 0.460719C5.40039 0.206184 5.54928 0 5.73282 0H7.88486C7.96097 0 8.03482 0.0362634 8.09397 0.102507L8.52857 0.590044C8.52522 0.593525 8.522 0.597005 8.51877 0.600645L8.5729 1.89203H5.40636Z" fill="#F7F7F9"/>
</g>
<path d="M11.7385 0.958778V5.69326C11.7385 5.94779 11.5897 6.15398 11.4061 6.15398H5.73769C5.55416 6.15398 5.40527 5.94779 5.40527 5.69326V1.89709L5.40538 1.89212C5.40718 1.64007 5.55535 1.43636 5.73769 1.43636H7.65517C7.73129 1.43636 7.80512 1.4001 7.86428 1.33386L8.51778 0.600727C8.52101 0.597087 8.52423 0.593607 8.52758 0.590127C8.58505 0.530512 8.65496 0.498047 8.72701 0.498047H11.4062C11.5897 0.498061 11.7385 0.704403 11.7385 0.958778Z" fill="white"/>
<path d="M0.00530741 13.3818L0 12.1095C0 11.8832 0.132342 11.7 0.295493 11.7H2.20842C2.27607 11.7 2.34171 11.7322 2.3943 11.791L2.78059 12.2245C2.77762 12.2275 2.77476 12.2306 2.77189 12.2338L2.82001 13.3818H0.00530741Z" fill="#F7F7F9"/>
<path d="M5.63446 12.5524V16.7608C5.63446 16.9871 5.50211 17.1703 5.33896 17.1703H0.300366C0.137226 17.1703 0.00488281 16.9871 0.00488281 16.7608V13.3864L0.00498458 13.382C0.00657773 13.158 0.138281 12.9769 0.300366 12.9769H2.00479C2.07246 12.9769 2.13808 12.9447 2.19067 12.8858L2.77156 12.2342C2.77443 12.2309 2.77729 12.2278 2.78027 12.2247C2.83136 12.1717 2.89349 12.1428 2.95754 12.1428H5.33897C5.50211 12.1429 5.63446 12.3263 5.63446 12.5524Z" fill="white"/>
<path d="M11.7055 13.3818L11.7002 12.1095C11.7002 11.8832 11.8325 11.7 11.9957 11.7H13.9086C13.9763 11.7 14.0419 11.7322 14.0945 11.791L14.4808 12.2245C14.4778 12.2275 14.475 12.2306 14.4721 12.2338L14.5202 13.3818H11.7055Z" fill="#F7F7F9"/>
<path d="M17.3347 12.5524V16.7608C17.3347 16.9871 17.2024 17.1703 17.0392 17.1703H12.0006C11.8375 17.1703 11.7051 16.9871 11.7051 16.7608V13.3864L11.7053 13.382C11.7068 13.158 11.8385 12.9769 12.0006 12.9769H13.7051C13.7726 12.9769 13.8383 12.9447 13.8909 12.8858L14.4718 12.2342C14.4746 12.2309 14.4775 12.2278 14.4805 12.2247C14.5316 12.1717 14.5937 12.1428 14.6578 12.1428H17.0392C17.2024 12.1429 17.3347 12.3263 17.3347 12.5524Z" fill="white"/>
</g>
</g>
<defs>
<filter id="filter0_d_6484_2022" x="1.40039" y="0" width="11.1729" height="9.89209" filterUnits="userSpaceOnUse" color-interpolation-filters="sRGB">
<feFlood flood-opacity="0" result="BackgroundImageFix"/>
<feColorMatrix in="SourceAlpha" type="matrix" values="0 0 0 0 0 0 0 0 0 0 0 0 0 0 0 0 0 0 127 0" result="hardAlpha"/>
<feOffset dy="4"/>
<feGaussianBlur stdDeviation="2"/>
<feComposite in2="hardAlpha" operator="out"/>
<feColorMatrix type="matrix" values="0 0 0 0 0 0 0 0 0 0 0 0 0 0 0 0 0 0 0.25 0"/>
<feBlend mode="normal" in2="BackgroundImageFix" result="effect1_dropShadow_6484_2022"/>
<feBlend mode="normal" in="SourceGraphic" in2="effect1_dropShadow_6484_2022" result="shape"/>
</filter>
<clipPath id="clip0_6484_2022">
<rect width="18" height="18" fill="white"/>
</clipPath>
</defs>
</svg>
