<svg width="18" height="22" viewBox="0 0 18 22" fill="none" xmlns="http://www.w3.org/2000/svg">
<path d="M1.34812 0.0844568C0.810688 0.266023 0.405349 0.603836 0.14574 1.09366L0 1.37236V10.81V20.2476L0.14574 20.5262C0.409902 21.0288 0.819804 21.3623 1.37088 21.5354C1.63504 21.6199 1.75802 21.6199 8.94951 21.6115L16.2594 21.5988L16.5782 21.4552C16.9972 21.2651 17.357 20.9316 17.562 20.5431L17.7168 20.2476L17.7305 13.2886L17.7396 6.33396H15.4077C14.1233 6.33396 12.9164 6.31284 12.7342 6.29173C11.796 6.17772 11.0764 5.51054 10.9534 4.64068C10.9306 4.47177 10.9079 3.35277 10.9079 2.16198V0H6.25325C1.77168 0.00422573 1.58495 0.00422578 1.34812 0.0844568ZM13.2626 9.00265C13.4584 9.10405 13.595 9.32354 13.595 9.54313C13.595 9.76272 13.4857 9.94428 13.2762 10.0626L13.1168 10.1554H8.85835C4.68197 10.1554 4.59543 10.1554 4.44969 10.071C4.24474 9.95696 4.12178 9.76272 4.12178 9.54735C4.12178 9.23914 4.31306 9.02378 4.64554 8.94773C4.71841 8.93083 6.65859 8.92238 8.94951 8.92238C12.8025 8.93083 13.1259 8.93506 13.2626 9.00265ZM13.2626 11.5362C13.4584 11.6376 13.595 11.8571 13.595 12.0767C13.595 12.2963 13.4857 12.4779 13.2762 12.5961L13.1168 12.689H8.85835C4.68197 12.689 4.59543 12.689 4.44969 12.6046C4.24474 12.4905 4.12178 12.2963 4.12178 12.0809C4.12178 11.7727 4.31306 11.5574 4.64554 11.4813C4.71841 11.4644 6.65859 11.4561 8.94951 11.4561C12.8025 11.4644 13.1259 11.4686 13.2626 11.5362ZM13.2626 14.0698C13.4584 14.1712 13.595 14.3908 13.595 14.6103C13.595 14.8299 13.4857 15.0114 13.2762 15.1297L13.1168 15.2226H8.85835C4.68197 15.2226 4.59543 15.2226 4.44969 15.1382C4.24474 15.0241 4.12178 14.8299 4.12178 14.6145C4.12178 14.3063 4.31306 14.0909 4.64554 14.0149C4.71841 13.9981 6.65859 13.9896 8.94951 13.9896C12.8025 13.9981 13.1259 14.0023 13.2626 14.0698ZM10.5299 16.6034C10.9671 16.8272 10.9716 17.4268 10.5344 17.6717C10.3887 17.7519 10.3021 17.7561 7.49211 17.7561C4.68197 17.7561 4.59543 17.7519 4.44969 17.6717C4.24474 17.5577 4.12178 17.3634 4.12178 17.1481C4.12178 16.8399 4.3085 16.6245 4.64554 16.5486C4.71841 16.5317 6.04375 16.519 7.58317 16.5232C10.1428 16.5317 10.3977 16.5359 10.5299 16.6034Z" fill="#0262B8"/>
<path d="M12.2754 2.48684C12.2754 4.57282 12.2799 4.6615 12.3665 4.79239C12.5577 5.07954 12.494 5.07109 15.0672 5.05843L17.3763 5.04575L14.8258 2.68108L12.2754 0.316406V2.48684Z" fill="#0262B8"/>
<path d="M16 8H3V19H16V8Z" fill="#0262B8"/>
<path d="M10.2263 17.6851L9.64694 15.059C9.6155 14.9023 9.56386 14.6717 9.49201 14.3672C9.42007 14.0583 9.34152 13.7292 9.25617 13.38C9.17536 13.0262 9.09898 12.6994 9.02714 12.3994C8.95973 12.0994 8.91035 11.88 8.87891 11.7412H8.8183C8.78686 11.88 8.73739 12.0994 8.67008 12.3994C8.60267 12.6994 8.52629 13.0262 8.44104 13.38C8.36013 13.7337 8.28375 14.0673 8.21191 14.3807C8.14006 14.6897 8.08615 14.9247 8.05028 15.0859L7.44388 17.6851H5.23417L3.0918 10.1763H5.13985L6.00893 13.5009C6.06731 13.7337 6.12346 14.0113 6.17736 14.3337C6.23125 14.6516 6.27841 14.9606 6.31883 15.2605C6.36375 15.556 6.39743 15.7912 6.41989 15.9658H6.47378C6.48276 15.8359 6.50073 15.6635 6.52768 15.4486C6.55912 15.2337 6.59281 15.012 6.62874 14.7837C6.66916 14.5509 6.70509 14.3427 6.73653 14.159C6.77246 13.971 6.7994 13.8434 6.81737 13.7762L7.74713 10.1763H10.0107L10.8932 13.7762C10.9247 13.906 10.9652 14.1121 11.0146 14.3941C11.0685 14.6762 11.1156 14.9672 11.156 15.2673C11.1965 15.5627 11.2189 15.7956 11.2234 15.9658H11.2773C11.2952 15.8136 11.3267 15.5874 11.3716 15.2874C11.4166 14.9874 11.4682 14.674 11.5265 14.3471C11.5894 14.0158 11.6523 13.7337 11.7152 13.5009L12.6179 10.1763H14.6323L12.463 17.6851H10.2263Z" fill="white"/>
</svg>
